/* XPM */
static char *result[] = {
/* columns rows colors chars-per-pixel */
"64 64 124 2 ",
"   c #000200",
".  c #0F0000",
"X  c #051402",
"o  c #270003",
"O  c #271A0A",
"+  c #0B2004",
"@  c #4E0014",
"#  c #451B14",
"$  c #693221",
"%  c #793126",
"&  c #004700",
"*  c #3D4D19",
"=  c #356C1F",
"-  c #2F7622",
";  c #357C25",
":  c #41531A",
">  c #47671F",
",  c #6E4324",
"<  c #7F4A2A",
"1  c #4F6E22",
"2  c #526622",
"3  c #737E2E",
"4  c #882E2B",
"5  c #85302A",
"6  c #88322B",
"7  c #893C2C",
"8  c #8A432D",
"9  c #814E2B",
"0  c #8B4D2E",
"q  c #81542C",
"w  c #8C522F",
"e  c #904E30",
"r  c #8E5430",
"t  c #8E5B31",
"y  c #8F6432",
"u  c #916C34",
"i  c #937635",
"p  c #947C37",
"a  c #7EB001",
"s  c #458E2B",
"d  c #799934",
"f  c #45A231",
"g  c #4CA432",
"h  c #4DA933",
"j  c #52A633",
"k  c #55AA34",
"l  c #5CAB35",
"z  c #57B236",
"x  c #5BB237",
"c  c #5EB538",
"v  c #63AF37",
"b  c #60B037",
"n  c #62B539",
"m  c #6AB239",
"M  c #60B939",
"N  c #71B63B",
"B  c #74BA3D",
"V  c #7BBB3E",
"C  c #77C03E",
"Z  c #7FC540",
"A  c #958137",
"S  c #968438",
"D  c #978A39",
"F  c #998D3B",
"G  c #82A43A",
"H  c #89AD3C",
"J  c #9EA33F",
"K  c #93AF3E",
"L  c #8EB43E",
"P  c #80BF3F",
"I  c #82C03F",
"U  c #A3DA32",
"Y  c #AADE3E",
"T  c #8AAB41",
"R  c #9FA740",
"E  c #9FA941",
"W  c #94BC41",
"Q  c #A0AA41",
"!  c #A6B044",
"~  c #A6BE46",
"^  c #A2A36E",
"/  c #84C140",
"(  c #8CC642",
")  c #86C842",
"_  c #8ECB44",
"`  c #9AC344",
"'  c #93CB45",
"]  c #99CE46",
"[  c #96D247",
"{  c #9BD047",
"}  c #9ED348",
"|  c #A7C046",
" . c #A2CC46",
".. c #A9C748",
"X. c #AACB49",
"o. c #ABDE43",
"O. c #A4D54A",
"+. c #ABD24B",
"@. c #A6D84B",
"#. c #AEDC4D",
"$. c #B0DE4E",
"%. c #AFDC50",
"&. c #B2DD52",
"*. c #B6DA5E",
"=. c #B8DD5F",
"-. c #AFE441",
";. c #AFE049",
":. c #B3E14F",
">. c #B5E350",
",. c #B7E852",
"<. c #B6D464",
"1. c #BBDC64",
"2. c #C0DB6F",
"3. c #C3DF70",
"4. c #C9CC89",
"5. c #CFDE85",
"6. c #D2D491",
"7. c #D2E086",
"8. c #E6DAA7",
"9. c #F9D9BF",
"0. c #F3E4B1",
"q. c #FFDCCB",
"w. c #FFDDD0",
"e. c None",
/* pixels */
"e.e.e.e.e.e.e.e.e.e.e.e.e.e.e.e.e.e.e.e.e.e.e.e.e.e.e.e.e.e.e.e.e.e.e.e.e.e.e.e.e.e.e.e.e.e.e.e.e.e.e.e.e.e.e.e.e.e.e.e.e.e.e.e.",
"e.e.e.e.e.e.e.e.e.e.e.e.e.e.e.e.e.e.e.e.e.e.e.e.e.e.e.e.e.e.e.e.e.e.e.e.e.e.e.e.e.e.e.e.e.e.e.e.e.e.e.e.e.e.e.e.e.e.e.e.e.e.e.e.",
"e.e.e.e.e.e.e.e.e.e.e.e.e.e.e.e.e.e.e.e.e.e.e.e.e.e.e.e.e.e.e.e.e.e.e.e.e.e.e.e.e.e.e.e.e.e.e.e.e.e.e.e.e.e.e.e.e.e.e.e.e.e.e.e.",
"e.e.e.e.e.e.e.e.e.e.e.e.e.e.e.e.e.e.e.e.e.e.e.e.e.e.e.e.e.e.e.e.e.e.e.e.e.e.e.e.e.e.e.e.e.e.e.e.e.e.e.e.e.e.e.e.e.e.e.e.e.e.e.e.",
"e.e.e.e.e.e.e.e.e.e.e.e.e.e.e.e.e.e.e.e.e.e.e.e.e.e.e.e.e.e.e.e.e.e.e.e.e.e.e.e.e.e.e.e.e.e.e.e.e.e.e.e.e.e.e.e.e.e.e.e.e.e.e.e.",
"e.e.e.e.e.e.e.e.e.e.e.e.e.e.e.e.e.e.e.e.e.e.e.e.e.e.e.e.e.e.e.e.e.e.e.e.e.e.e.e.e.e.e.e.e.e.e.e.e.e.e.e.e.e.e.e.e.e.e.e.e.e.e.e.",
"e.e.e.e.e.e.e.e.e.e.e.e.e.e.e.e.e.e.e.e.e.e.e.e.e.e.e.e.e.e.e.e.e.e.e.e.e.e.e.e.e.e.e.e.e.e.e.e.e.e.e.e.e.e.e.e.e.e.e.e.e.e.e.e.",
"e.e.e.e.e.e.e.e.e.e.e.e.e.e.e.e.e.e.e.e.e.e.e.e.e.e.e.e.e.e.e.e.e.e.e.e.e.e.e.e.e.e.e.e.e.e.e.e.e.e.e.e.e.e.e.e.e.e.e.e.e.e.e.e.",
"e.e.e.e.e.e.e.e.e.e.e.e.e.e.e.e.e.e.e.e.e.e.e.e.e.e.e.e.e.e.e.e.e.e.e.e.e.e.e.e.e.e.e.e.e.e.e.e.e.e.e.e.e.e.e.e.e.e.e.e.e.e.e.e.",
"e.e.e.e.e.e.e.e.e.e.e.e.e.e.e.e.e.e.e.e.e.e.e.e.e.e.e.e.e.e.e.e.e.e.e.e.e.e.e.e.e.e.e.e.e.e.e.e.e.e.e.e.e.e.e.e.e.e.e.e.e.e.e.e.",
"e.e.e.e.e.e.e.e.e.e.e.e.e.e.e.e.e.e.e.e.e.e.e.e.e.e.e.e.e.e.e.e.e.e.e.e.e.e.e.e.e.e.e.e.e.e.e.e.e.e.e.e.e.e.e.e.e.e.e.e.e.e.e.e.",
"e.e.e.e.e.e.e.e.e.e.e.e.e.e.e.e.e.e.e.e.e.e.e.e.e.e.e.e.e.e.e.e.e.e.e.e.e.e.e.e.e.e.e.e.e.e.e.e.e.e.e.e.e.e.e.e.e.e.e.e.e.e.e.e.",
"e.e.e.e.e.e.e.e.e.e.e.e.e.e.e.e.e.e.e.e.e.e.e.e.e.e.e.e.e.e.e.e.e.e.e.e.e.e.e.e.e.e.e.e.e.e.e.e.e.e.e.e.e.e.e.e.e.e.e.e.e.e.e.e.",
"e.e.e.e.e.e.e.e.e.e.e.e.e.e.e.e.e.e.e.e.e.e.e.e.e.e.e.e.e.e.e.e.e.e.e.e.e.e.e.e.e.e.e.e.e.e.e.e.e.e.e.e.e.e.e.e.e.e.e.e.e.e.e.e.",
"e.e.e.e.e.e.e.e.e.e.e.e.e.e.e.e.e.e.e.e.e.e.e.e.e.e.e.e.e.e.e.e.e.e.e.e.e.e.e.e.e.e.e.e.e.e.e.e.e.e.e.e.e.e.e.e.e.e.e.e.e.e.e.e.",
"e.e.e.e.e.e.e.e.e.e.e.e.e.e.e.e.e.e.e.e.e.e.e.e.e.e.e.e.e.e.e.e.e.e.e.e.e.e.e.e.e.e.e.e.e.e.e.e.e.e.e.e.e.e.e.e.e.e.e.e.e.e.e.e.",
"e.e.e.e.e.e.e.e.e.e.e.e.e.e.e.e.e.e.e.e.e.e.e.e.e.e.e.e.e.e.j g f h f e.e.e.e.e.e.e.e.e.e.e.e.e.e.e.e.e.e.e.e.e.e.e.e.e.e.e.e.e.",
"e.e.e.e.e.e.e.e.e.e.e.e.e.e.e.e.e.e.e.e.e.e.e.e.e.e.e.l j c B ) [ } [ / l j l e.e.e.e.e.e.e.e.e.e.e.e.e.e.e.e.e.e.e.e.e.e.e.e.e.",
"e.e.e.e.e.e.e.e.e.e.e.e.e.e.e.e.e.e.e.e.e.e.e.e.e.e.k n V O.$.:.>.>.>.:.@./ x z l e.e.e.e.e.e.e.e.e.e.e.e.e.e.e.e.e.e.e.e.e.e.e.",
"e.e.e.e.e.e.e.e.e.e.e.e.e.e.e.e.e.e.e.e.e.e.e.e.l z V O.:.>.$.$.#.$.#.$.:.:.O.m c v e.e.e.e.e.e.e.e.e.e.e.e.e.e.e.e.e.e.e.e.e.e.",
"e.e.e.e.e.e.e.e.e.e.e.e.e.e.e.e.e.e.e.e.e.e.e.l c ( $.:.#.#.#.:.$.$.$.$.#.#.>.@.m M l e.e.e.e.e.e.e.e.e.e.e.e.e.e.e.e.e.e.e.e.e.",
"e.e.e.e.e.e.e.e.e.e.e.e.e.e.e.e.e.e.e.e.e.e.l c ] :.$.$.#.#.:.#.$.$.$.$.&.#.#.>.{ k l e.e.e.e.e.e.e.e.e.e.e.e.e.e.e.e.e.e.e.e.e.",
"e.e.e.e.e.e.e.e.e.e.e.e.e.e.e.e.e.e.e.e.e.v z ' >.#.#.,.,.:.#.$.$.$.$.$.>.#.$.$.#.v c l e.e.e.e.e.e.e.e.e.e.e.e.e.e.e.e.e.e.e.e.",
"e.e.e.e.e.e.e.e.e.e.e.e.e.e.e.e.e.e.e.e.e.x m #.#.&.&.T G #.:.#.#.#.$.#.+.&.&.$.$.N j l e.e.e.e.e.e.e.e.e.e.e.e.e.e.e.e.e.e.e.e.",
"e.e.e.e.e.e.e.e.e.e.e.e.e.e.e.e.e.e.e.e.v z I :.$.$.U &   +.:.:.,.$.:.L   G U -.:.C j n e.e.e.e.e.e.e.e.e.e.e.e.e.e.e.e.e.e.e.e.",
"e.e.e.e.e.e.e.e.e.e.e.e.e.e.e.e.e.e.e.e.l j ' :.$.&.5.6.<.#.#.` ` ` :. .^ 4.3.-.;.W j n l e.e.e.e.e.e.e.e.e.e.e.e.e.e.e.e.e.e.e.",
"e.e.e.e.e.e.e.e.e.e.e.e.e.e.e.e.e.e.e.e.n k ] &.o.1.9.q.7.Y $.` H ` &.:.0.q.8.Y >.( j l l e.e.e.e.e.e.e.e.e.e.e.e.e.e.e.e.e.e.e.",
"e.e.e.e.e.e.e.e.e.e.e.e.e.e.e.e.e.e.e.l v j } >.#.$.1.1.$.$.$.:.,.:.$.$.=.2.=.-.&.} j l c e.e.e.e.e.e.e.e.e.e.e.e.e.e.e.e.e.e.e.",
"e.e.e.e.e.e.e.e.e.e.e.e.e.e.e.e.e.e.e.x l l O.$.&.:.o.o.$.$.$.#.$.#.$.$.o.Y o.$.$.#.v l n l e.e.e.e.e.e.e.e.e.e.e.e.e.e.e.e.e.e.",
"e.e.e.e.e.e.e.e.e.e.e.e.e.e.e.e.e.e.l n j N $.:.L  .>.$.$.$.#.#.#.$.$.$.&.&.>.#.$.:.( j l l e.e.e.e.e.e.e.e.e.e.e.e.e.e.e.e.e.e.",
"e.e.e.e.e.e.e.e.e.e.e.e.e.e.e.e.e.e.l l j ( &.:.L : $.:.#.$.:.:.$.:.$.$.$.,.d W >.$.@.v l l e.e.e.e.e.e.e.e.e.e.e.e.e.e.e.e.e.e.",
"e.e.e.e.e.e.e.e.e.e.e.e.e.e.e.e.e.l n l j O.:.$.,.G 2 +.,.#.+.X.X.+.$.:.,.W * @.$.$.:.I j n e.e.e.e.e.e.e.e.e.e.e.e.e.e.e.e.e.e.",
"e.e.e.e.e.e.e.e.e.e.e.e.e.e.e.e.e.l v j V $.$.$.$.,.L 1 T F t 0 t y A ! +.> ` ,.#.#.>.O.l n l e.e.e.e.e.e.e.e.e.e.e.e.e.e.e.e.e.",
"e.e.e.e.e.e.e.e.e.e.e.e.e.e.e.e.e.x l l O.$.$.$.$.:.+.q o @ 8 0 8 7 5 % # 3 ,.#.$.$.#.&.V z l e.e.e.e.e.e.e.e.e.e.e.e.e.e.e.e.e.",
"e.e.e.e.e.e.e.e.e.e.e.e.e.e.e.e.l n g / :.$.$.#.$.~ 7 0 9 , r 0 w w 9 O $ 8 J :.#.$.$.>.' k l e.e.e.e.e.e.e.e.e.e.e.e.e.e.e.e.e.",
"e.e.e.e.e.e.e.e.e.e.e.e.e.e.e.e.l b l O.:.#.#.:.+.t 8 w e e 0 0 0 0 0 0 r 0 4 ~ :.#.$.$.@.v l e.e.e.e.e.e.e.e.e.e.e.e.e.e.e.e.e.",
"e.e.e.e.e.e.e.e.e.e.e.e.e.e.e.e.l k N $.$.$.#.:.Q 4 e w w 0 0 0 0 0 w 0 0 w 7 i #.$.#.$.#.m l e.e.e.e.e.e.e.e.e.e.e.e.e.e.e.e.e.",
"e.e.e.e.e.e.e.e.e.e.e.e.e.e.e.e.l j P :.#.$.$.$.p 7 w 0 0 0 0 0 0 0 0 0 0 0 0 w +.:.$.$.$.N j e.e.e.e.e.e.e.e.e.e.e.e.e.e.e.e.e.",
"e.e.e.e.e.e.e.e.e.e.e.e.e.e.e.e.l l P $.$.$.$.$.u 8 0 0 0 0 0 0 0 0 0 0 0 0 0 r +.:.@.@.:.V j e.e.e.e.e.e.e.e.e.e.e.e.e.e.e.e.e.",
"e.e.e.e.e.e.e.e.e.e.e.e.e.e.e.e.l z V $.#.$.$.:.D 6 w 0 0 0 0 0 0 0 0 0 0 w 4 F :.$.O.@.>.N j e.e.e.e.e.e.e.e.e.e.e.e.e.e.e.e.e.",
"e.e.e.e.e.e.e.e.e.e.e.e.e.e.e.e.e.l v @.:.$.$.>...8 8 w w 0 0 0 0 w 0 w w 8 r +.;.#.O.:.O.n l e.e.e.e.e.e.e.e.e.e.e.e.e.e.e.e.e.",
"e.e.e.e.e.e.e.e.e.e.e.e.e.e.e.e.e.l k V :.#.#.#.:.| r 6 0 w r r w w w 8 6 0 | :.%.%.@.,.) z e.e.e.e.e.e.e.e.e.e.e.e.e.e.e.e.e.e.",
"e.e.e.e.e.e.e.e.e.e.e.e.e.e.e.e.e.e.n k ] >.#.$.#.>.+.F 0 5 5 5 6 4 6 w D X.:.$.$.$.:.@.l l e.e.e.e.e.e.e.e.e.e.e.e.e.e.e.e.e.e.",
"e.e.e.e.e.e.e.e.e.e.e.e.e.e.e.e.e.e.l l m #.$.#.#.#.:.>.| E F S A F Q ..:.:.$.#.$.:.@.m c v e.e.e.e.e.e.e.e.e.e.e.e.e.e.e.e.e.e.",
"e.e.e.e.e.e.e.e.e.e.e.e.e.e.e.e.e.e.e.b k N @.>.#.;.%.#.:.:.$.$.$.$.:.:.#.#.#.$.:.O.m k l e.e.e.e.e.e.e.e.e.e.e.e.e.e.e.e.e.e.e.",
"e.e.e.e.e.e.e.e.e.e.e.e.e.e.e.e.e.e.e.e.v z v } >.:.:.#.#.$.$.$.$.$.#.#.#.:.,.#.( v l l e.e.e.e.e.e.e.e.e.e.e.e.e.e.e.e.e.e.e.e.",
"e.e.e.e.e.e.e.e.e.e.e.e.e.e.e.e.e.e.e.e.e.v l x / O.:.:.,.:.&.:.:.:.:.,.:.@.' m k c l e.e.e.e.e.e.e.e.e.e.e.e.e.e.e.e.e.e.e.e.e.",
"e.e.e.e.e.e.e.e.e.e.e.e.e.e.e.e.e.e.e.e.e.e.e.l j l C _ ] } @.O.@.@.O.' V b z l l v e.e.e.e.e.e.e.e.e.e.e.e.e.e.e.e.e.e.e.e.e.e.",
"e.e.e.e.e.e.e.e.e.e.e.e.e.e.e.e.e.e.e.e.e.e.e.e.e.e.g h - s c n l l j k ; = e.e.e.e.e.e.e.e.e.e.e.e.e.e.e.e.e.e.e.e.e.e.e.e.e.e.",
"e.e.e.e.e.e.e.e.e.e.e.e.e.e.e.e.e.e.e.e.e.e.e.e.e.e.e.e.. e.e.e.e.e.e.e.e.  e.e.e.e.e.e.e.e.e.e.e.e.e.e.e.e.e.e.e.e.e.e.e.e.e.e.",
"e.e.e.e.e.e.e.e.e.e.e.e.e.e.e.e.e.e.e.e.e.e.e.e.e.e.e.e.X e.e.e.e.e.e.e.e.+ X e.e.e.e.e.e.e.e.e.e.e.e.e.e.e.e.e.e.e.e.e.e.e.e.e.",
"e.e.e.e.e.e.e.e.e.e.e.e.e.e.e.e.e.e.e.e.e.e.e.e.e.e.e.e.  e.e.e.e.e.e.e.e.e.e.e.e.e.e.e.e.e.e.e.e.e.e.e.e.e.e.e.e.e.e.e.e.e.e.e.",
"e.e.e.e.e.e.e.e.e.e.e.e.e.e.e.e.e.e.e.e.e.e.e.e.e.e.e.e.e.e.e.e.e.e.e.e.e.e.e.e.e.e.e.e.e.e.e.e.e.e.e.e.e.e.e.e.e.e.e.e.e.e.e.e.",
"e.e.e.e.e.e.e.e.e.e.e.e.e.e.e.e.e.e.e.e.e.e.e.e.e.e.e.e.e.e.e.e.e.e.e.e.e.e.e.e.e.e.e.e.e.e.e.e.e.e.e.e.e.e.e.e.e.e.e.e.e.e.e.e.",
"e.e.e.e.e.e.e.e.e.e.e.e.e.e.e.e.e.e.e.e.e.e.e.e.e.e.e.e.e.e.e.e.e.e.e.e.e.e.e.e.e.e.e.e.e.e.e.e.e.e.e.e.e.e.e.e.e.e.e.e.e.e.e.e.",
"e.e.e.e.e.e.e.e.e.e.e.e.e.e.e.e.e.e.e.e.e.e.e.e.e.e.e.e.e.e.e.e.e.e.e.e.e.e.e.e.e.e.e.e.e.e.e.e.e.e.e.e.e.e.e.e.e.e.e.e.e.e.e.e.",
"e.e.e.e.e.e.e.e.e.e.e.e.e.e.e.e.e.e.e.e.e.e.e.e.e.e.e.e.e.e.e.e.e.e.e.e.e.e.e.e.e.e.e.e.e.e.e.e.e.e.e.e.e.e.e.e.e.e.e.e.e.e.e.e.",
"e.e.e.e.e.e.e.e.e.e.e.e.e.e.e.e.e.e.e.e.e.e.e.e.e.e.e.e.e.e.e.e.e.e.e.e.e.e.e.e.e.e.e.e.e.e.e.e.e.e.e.e.e.e.e.e.e.e.e.e.e.e.e.e.",
"e.e.e.e.e.e.e.e.e.e.e.e.e.e.e.e.e.e.e.e.e.e.e.e.e.e.e.e.e.e.e.e.e.e.e.e.e.e.e.e.e.e.e.e.e.e.e.e.e.e.e.e.e.e.e.e.e.e.e.e.e.e.e.e.",
"e.e.e.e.e.e.e.e.e.e.e.e.e.e.e.e.e.e.e.e.e.e.e.e.e.e.e.e.e.e.e.e.e.e.e.e.e.e.e.e.e.e.e.e.e.e.e.e.e.e.e.e.e.e.e.e.e.e.e.e.e.e.e.e.",
"e.e.e.e.e.e.e.e.e.e.e.e.e.e.e.e.e.e.e.e.e.e.e.e.e.e.e.e.e.e.e.e.e.e.e.e.e.e.e.e.e.e.e.e.e.e.e.e.e.e.e.e.e.e.e.e.e.e.e.e.e.e.e.e.",
"e.e.e.e.e.e.e.e.e.e.e.e.e.e.e.e.e.e.e.e.e.e.e.e.e.e.e.e.e.e.e.e.e.e.e.e.e.e.e.e.e.e.e.e.e.e.e.e.e.e.e.e.e.e.e.e.e.e.e.e.e.e.e.e.",
"e.e.e.e.e.e.e.e.e.e.e.e.e.e.e.e.e.e.e.e.e.e.e.e.e.e.e.e.e.e.e.e.e.e.e.e.e.e.e.e.e.e.e.e.e.e.e.e.e.e.e.e.e.e.e.e.e.e.e.e.e.e.e.e.",
"e.e.e.e.e.e.e.e.e.e.e.e.e.e.e.e.e.e.e.e.e.e.e.e.e.e.e.e.e.e.e.e.e.e.e.e.e.e.e.e.e.e.e.e.e.e.e.e.e.e.e.e.e.e.e.e.e.e.e.e.e.e.e.e."
};
