/* XPM */
static char *result[] = {
/* columns rows colors chars-per-pixel */
"64 64 117 2 ",
"   c black",
".  c #270000",
"X  c #322D2E",
"o  c #352E30",
"O  c #3A3533",
"+  c #39393B",
"@  c #413E3E",
"#  c #3E3E41",
"$  c #4C3662",
"%  c #4D3862",
"&  c #424244",
"*  c #47474A",
"=  c #4C4B4C",
"-  c #504C4B",
";  c #4F4F50",
":  c #534F5A",
">  c #495452",
",  c #4F5D59",
"<  c #535354",
"1  c #57555A",
"2  c #585759",
"3  c #535C5B",
"4  c #5A5A5C",
"5  c #6E785F",
"6  c #5D5766",
"7  c #5E5D62",
"8  c #5F5968",
"9  c #615D66",
"0  c #605969",
"q  c #5C6161",
"w  c #646465",
"e  c #676866",
"r  c #6A6D66",
"t  c #676768",
"y  c #6A6668",
"u  c #676969",
"i  c #6A6A6B",
"p  c #706D6C",
"a  c #6C7264",
"s  c #6F7961",
"d  c #737C63",
"f  c #6F6F70",
"g  c #737374",
"h  c #797574",
"j  c #7B7B7B",
"k  c #77875B",
"l  c #788B5A",
"z  c #7B8C62",
"x  c #879E5C",
"c  c #8CA55D",
"v  c #8EA85F",
"b  c #97B55D",
"n  c #9CBE5B",
"m  c #809262",
"M  c #849960",
"N  c #899F60",
"B  c #96C240",
"V  c #99C444",
"C  c #9DC649",
"Z  c #9EC84C",
"A  c #9FC15B",
"S  c #A1CA4E",
"D  c #A6CC54",
"F  c #A3C65A",
"G  c #A6CD59",
"H  c #A9CF59",
"J  c #ABD159",
"K  c #B0D65B",
"L  c #867C81",
"P  c #8A7B82",
"I  c #917F87",
"U  c #858484",
"Y  c #8A8888",
"T  c #919192",
"R  c #929C9C",
"E  c #9E9E9F",
"W  c #B296A3",
"Q  c #BA99A7",
"!  c #BF9BAB",
"~  c #A3A3A4",
"^  c #A7AFAF",
"/  c #AAAAAA",
"(  c #AAB0B0",
")  c #B2B2B3",
"_  c #BBBBBB",
"`  c #C7A2B2",
"'  c #CCA7B7",
"]  c #DDABBE",
"[  c #C0BEBE",
"{  c #DFB2B1",
"}  c #DFBBBB",
"|  c #DCADC0",
" . c #E0AEC0",
".. c #E4B2C6",
"X. c #EBBACE",
"o. c #EDBDD1",
"O. c #F1BED3",
"+. c #C1C1C1",
"@. c #C6C8C7",
"#. c #C6C9C9",
"$. c #CBCACA",
"%. c #D3D3D3",
"&. c gainsboro",
"*. c #F1C1D6",
"=. c #F3C3D9",
"-. c #F8C7DC",
";. c #FAC9DF",
":. c #FFCCE2",
">. c #FFD1E7",
",. c #FFD3EA",
"<. c #FFDBF3",
"1. c #E0E0E1",
"2. c #EFEFEF",
"3. c #F0EFEF",
"4. c #FFE3FB",
"5. c #FFFFFF",
"6. c None",
/* pixels */
"6.6.6.6.6.6.6.6.6.6.6.6.6.6.6.6.6.6.6.6.6.6.6.6.6.6.6.6.6.6.6.6.6.6.6.6.6.6.6.6.6.6.6.6.6.6.6.6.6.6.6.6.6.6.6.6.6.6.6.6.6.6.6.6.",
"6.6.6.6.6.6.6.6.6.6.6.6.6.6.6.6.6.6.6.6.6.6.6.6.6.6.6.6.6.6.6.6.6.6.6.6.6.6.6.6.6.6.6.6.6.6.6.6.6.6.6.6.6.6.6.6.6.6.6.6.6.6.6.6.",
"6.6.6.6.6.6.6.6.6.6.6.6.6.6.6.6.6.6.6.6.6.6.6.6.6.6.6.6.6.6.6.6.6.6.6.6.6.6.6.6.6.*.*.=.*.<.6.6.6.6.6.6.6.6.6.6.6.6.6.6.6.6.6.6.",
"6.6.6.6.6.6.6.6.6.6.6.6.6.6.6.6.6.6.6.6.6.6.6.6.6.6.6.6.6.6.6.6.6.6.6.6.6.6.6.6.6.*.,.=.o.:.6.6.6.6.6.6.6.6.6.6.6.6.6.6.6.6.6.6.",
"6.6.6.6.6.6.6.6.6.6.6.6.6.6.6.6.6.6.6.6.6.6.*.6.6.6.6.6.6.6.6.6.6.6.6.6.6.6.6.6.6.=.o.] | o.*.6.6.6.6.6.6.6.6.6.6.6.6.6.6.6.6.6.",
"6.6.6.6.6.6.6.6.6.6.6.6.6.6.6.6.6.6.6.6.*.-.X.*.6.6.6.6.6.6.6.6.6.6.6.6.6.6.6.6.*.4.:.X...-.4.*.6.6.6.6.6.6.6.6.6.6.6.6.6.6.6.6.",
"6.6.6.6.6.6.6.6.6.6.6.6.6.6.6.6.6.6.6.6.=.,.*.=.6.6.6.6.6.6.6.6.6.6.6.6.6.6.6.6.6.*.O.=.,.O.6.6.6.6.6.6.6.6.6.6.6.6.6.6.6.6.6.6.",
"6.6.6.6.6.6.6.6.6.6.6.6.6.6.*.6.6.6.6.6.6.*.=.6.6.6.6.6.6.6.6.6.6.6.6.6.6.6.6.6.6.6.6.*.*.6.6.6.6.6.6.6.6.6.6.6.6.6.6.6.6.6.6.6.",
"6.6.6.6.6.6.6.6.6.6.6.6.6.,.<.6.6.6.6.6.6.6.6.6.6.6.6.6.6.6.6.6.6.6.6.6.6.6.6.6.6.6.6.6.6.6.6.6.6.6.6.6.6.6.6.6.6.6.6.6.6.6.6.6.",
"6.6.6.6.6.6.6.6.6.6.*.*.*.=.*.*.*.6.6.6.6.6.6.6.6.6.6.6.6.6.6.6.6.6.6.6.6.6.6.6.6.6.6.6.6.6.6.6.6.6.6.6.6.6.6.6.6.6.6.6.6.6.6.6.",
"6.6.6.6.6.6.6.6.6.6.*.,.....] o.<.*.6.6.6.6.6.6.6.6.6.6.6.6.6.6.6.6.6.6.6.6.6.6.6.6.6.6.6.6.6.6.6.6.6.6.6.6.6.6.6.6.6.6.6.6.6.6.",
"6.6.6.6.6.6.6.6.6.6.6.*.*.| | ;.*.6.6.6.6.6.6.6.6.6.6.6.6.6.6.6.6.6.6.6.6.6.6.6.6.6.6.6.6.6.6.6.6.6.6.6.6.6.6.6.6.6.6.6.6.6.6.6.",
"6.6.6.6.6.6.6.6.6.6.6.;.:.:.*.,.=.6.6.6.6.6.w w 6.6.6.6.6.6.6.6.6.6.6.6.6.6.6.w w w 6.6.6.6.6.6.6.6.6.6.6.6.6.6.6.6.6.6.6.6.6.6.",
"6.6.6.6.6.6.6.6.6.6.6.*.*.6.*.:.6.6.6.6.6.i i u g w 6.w w w u u u t w w 6.6.w f i i w 6.6.6.6.6.6.6.6.6.6.6.6.6.6.6.6.6.6.6.6.6.",
"6.6.6.6.6.6.6.6.6.6.6.6.6.6.6.6.6.6.6.6.t w < * < w t i t w w w w w w t u t w < * 4 i w 6.6.6.6.6.6.*.=.*.*.6.6.6.6.6.6.6.6.6.6.",
"6.6.6.6.6.6.6.6.6.6.6.6.6.6.6.6.6.6.6.6.i 4 # & & w t w w w w w w w w w w w 4 # & & w w 6.6.6.6.6.=.*.| :.6.6.6.6.6.6.6.6.6.6.6.",
"6.6.6.6.6.6.6.6.6.6.6.6.6.6.6.6.6.6.6.6.w w = & 4 w w t w w w w w w w w t w w < & < i t 6.6.6.6.6.*.=.O.:.=.6.6.6.6.6.6.6.6.6.6.",
"6.6.6.6.6.6.6.6.6.6.6.6.6.6.6.6.6.6.6.6.6.u e 9 w w w < 2 t w w w w w 2 < w t w w i w 6.6.6.6.6.6.6.6.*.6.6.6.6.6.6.6.6.6.6.6.6.",
"6.6.6.6.6.6.6.6.6.6.6.6.6.6.6.6.6.6.6.6.6.6.w u w w w 4 w w w t w w w w 4 w w w t w 6.6.6.6.6.6.6.6.6.6.6.6.6.6.6.6.6.6.6.6.6.6.",
"6.6.6.6.6.6.6.6.6.6.6.6.6.6.6.6.6.6.6.6.6.6.w u w w w 2 - u u 7 w u t - 2 w w w i w 6.6.6.6.6.6.6.6.6.6.6.6.6.6.6.6.6.6.6.6.6.6.",
"6.6.6.6.6.6.6.6.6.6.6.6.6.6.6.6.6.6.6.6.6.w w w w t @ - U < < f i - 4 Y O - u w i w w 6.6.6.6.6.6.6.6.6.6.6.6.6.6.6.6.6.6.6.6.6.",
"6.6.6.6.6.6.6.6.6.6.6.6.6.6.6.6.6.6.6.6.q t 9 t w t X - j = $.3.3.+.O U O & u w w 9 u 3 6.6.6.6.6.6.6.6.6.6.6.6.6.6.6.6.6.6.6.6.",
"6.6.6.6.6.6.6.6.6.6.6.6.6.6.6.6.6.6.4 ' Q 3 2 q w w 7 @   _ 5.h p 5.E   = w w w 4 > L ] P 6.6.6.6.6.6.6.6.6.6.6.6.6.6.6.6.6.6.6.",
"6.6.6.6.6.6.6.6.6.6.6.6.6.6.6.6.6.6.L ` I q w < w t e i < +.5.[ $.5./ < i w w 7 2 w i ! W 3 6.6.6.6.6.6.6.6.6.6.6.6.6.6.6.6.6.6.",
"6.6.6.6.6.6.6.6.6.6.6.6.6.6.6.6.6.6.w > q w u 9 < w w w > ) _ ^ ( _ ~ = u w w < w w w , 3 6.6.6.6.6.6.6.6.6.6.6.6.6.6.6.6.6.6.6.",
"6.6.6.6.6.6.6.6.6.6.6.6.6.6.6.6.6.6.6.6.y u w t 4 4 t u = ~ _   . $.T = i w < 9 t w w 6.6.6.6.6.6.6.6.6.6.6.6.6.6.6.6.6.6.6.6.6.",
"6.6.6.6.6.6.6.6.6.6.6.6.6.6.6.6.6.6.6.6.6.6.u w w 4 4 u w u %.{ } #.4 u w 4 4 e t w 6.6.6.6.6.6.6.6.6.6.6.6.6.6.6.6.6.6.6.6.6.6.",
"6.6.6.6.6.6.6.6.6.6.6.6.6.6.6.6.6.6.6.6.6.6.6.u t w 4 w 7 2 f R R w 2 4 w 4 w u w 6.6.6.6.6.6.6.6.6.6.6.6.6.6.6.6.6.6.6.6.6.6.6.",
"6.6.6.6.6.6.6.6.6.6.6.6.6.6.6.6.6.6.6.6.6.6.6.6.w t t w j h + o X & j j w w u w 6.6.6.6.6.6.6.6.6.6.6.6.6.6.6.6.6.6.6.6.6.6.6.6.",
"6.6.6.6.6.6.6.6.6.6.6.6.6.6.6.6.6.6.6.6.6.6.6.6.6.w w w U %.%.~ / &.@.j w t w 6.6.6.6.6.6.6.6.6.6.6.6.6.6.6.6.6.6.6.6.6.6.6.6.6.",
"6.6.6.6.6.6.6.6.6.6.6.6.6.6.6.6.6.6.6.6.6.6.6.6.6.6.u t < g 3.5.5.1.7 4 u w 6.6.6.6.6.6.6.6.6.6.6.6.6.6.6.6.6.6.6.6.6.6.6.6.6.6.",
"6.6.6.6.6.6.6.6.6.6.6.6.6.6.6.6.6.6.6.6.6.6.6.6.6.6.u w i 2 w ) / < 7 u t w 6.6.6.6.6.6.6.6.6.6.6.6.6.6.6.6.6.6.6.6.6.6.6.6.6.6.",
"6.6.6.6.6.6.6.6.6.6.6.6.6.6.6.6.6.6.6.6.6.6.6.6.6.6.u w w t w = = w t w w w 6.6.6.6.6.6.6.6.6.6.6.6.6.6.6.6.6.6.6.6.6.6.6.6.6.6.",
"6.6.6.6.6.6.6.6.6.6.6.6.6.6.6.6.6.6.6.6.6.6.6.6.6.6.w w w w w i u w w e w t 6.6.6.6.6.6.6.6.6.6.6.6.6.6.6.6.6.6.6.6.6.6.6.6.6.6.",
"6.6.6.6.6.6.6.6.6.6.6.6.6.6.6.6.6.6.H H H H H H J A 9 w w w w w w w w w w a F J H H H H H 6.6.6.6.6.6.6.6.6.6.6.6.6.6.6.6.6.6.6.",
"6.6.6.6.6.6.6.6.6.6.6.6.6.H H H J H J J H H H H J F r w w w w w w w w u 9 d H J H H H H H H H H J H H 6.6.6.6.6.6.6.6.6.6.6.6.6.",
"6.6.6.6.6.6.6.6.6.6.J H H G H H H H D G H H H H J H d 9 w w w t w w w e 6 z J H H H H H H H H H G H H H H H 6.6.6.6.6.6.6.6.6.6.",
"6.6.6.6.6.6.6.6.H H G H H J H H B V V C J H H H H J z 6 w w q 2 2 w w w 6 x J H H H H H H H H H H H H H H H J 6.6.6.6.6.6.6.6.6.",
"6.6.6.6.6.6.6.6.H H J H H H H H H H G H J H H H J F u w r w w < < e w r w d F J H H H H D S Z S J H H H H H H H 6.6.6.6.6.6.6.6.",
"6.6.6.6.6.6.6.6.H H H H H H H H H H J H H H H H J l % 6 6 6 9 < 1 6 6 6 6 $ c K H H H H C C S Z H H H H H J J H 6.6.6.6.6.6.6.6.",
"6.6.6.6.6.6.6.6.J H H J G H H H H H H H H H J G J A x k d z c b b v z 5 l c F J H H H H J J H H H G H H H H H 6.6.6.6.6.6.6.6.6.",
"6.6.6.6.6.6.6.6.6.6.H H H H H H H H H H J D V V B S K J H K K J J K J J J J J J H H H H G J H H H H J J H 6.6.6.6.6.6.6.6.6.6.6.",
"6.6.6.6.6.6.6.6.6.6.6.6.6.J G H H H H H H H S D D D H H H H H H H H H H H H H H H H H H H G G J H H 6.6.6.6.6.6.6.6.6.6.6.6.6.6.",
"6.6.6.6.6.6.6.6.6.6.6.6.6.6.6.6.6.6.H G H J H J J H J H H H H H H H H H H J H H H H J H J 6.6.6.6.6.6.6.6.6.6.6.6.6.6.6.6.6.6.6.",
"6.6.6.6.6.6.6.6.6.6.6.6.6.6.6.6.6.6.6.6.6.6.6.6.6.6.6.6.6.6.6.6.6.6.6.6.6.6.6.6.6.6.6.6.6.6.6.6.6.6.6.6.6.6.6.6.6.6.6.6.6.6.6.6.",
"6.6.6.6.6.6.6.6.6.6.6.6.6.6.6.6.6.6.6.6.6.6.6.6.6.6.6.6.6.6.6.6.6.6.6.6.6.6.6.6.6.6.6.6.6.6.6.6.6.6.6.6.6.6.6.6.6.6.6.6.6.6.6.6.",
"6.6.6.6.6.6.6.6.6.6.6.6.6.6.6.6.6.6.6.6.6.6.6.6.6.6.6.6.6.6.6.6.6.6.6.6.6.6.6.6.6.6.6.6.6.6.6.6.6.6.6.6.6.6.6.6.6.6.6.6.6.6.6.6.",
"6.6.6.6.6.6.6.6.6.6.6.6.6.6.6.6.6.6.6.6.6.6.6.6.6.6.6.6.6.6.6.6.6.6.6.6.6.6.6.6.6.6.6.6.6.6.6.6.6.6.6.6.6.6.6.6.6.6.6.6.6.6.6.6.",
"6.6.6.6.6.6.6.6.6.6.6.6.6.6.6.6.6.6.6.6.6.6.6.6.6.6.6.6.6.6.6.6.6.6.6.6.6.6.6.6.6.6.6.6.6.6.6.6.6.6.6.6.6.6.6.6.6.6.6.6.6.6.6.6.",
"6.6.6.6.6.6.6.6.6.6.6.6.6.6.6.6.6.6.6.6.6.6.6.6.6.6.6.6.6.6.6.6.6.6.6.6.6.6.6.6.6.6.6.6.6.6.6.6.6.6.6.6.6.6.6.6.6.6.6.6.6.6.6.6.",
"6.6.6.6.6.6.6.6.6.6.6.6.6.6.6.6.6.6.6.6.6.6.6.6.6.6.6.6.6.6.6.6.6.6.6.6.6.6.6.6.6.6.6.6.6.6.6.6.6.6.6.6.6.6.6.6.6.6.6.6.6.6.6.6.",
"6.6.6.6.6.6.6.6.6.6.6.6.6.6.6.6.6.6.6.6.6.6.6.6.6.6.6.6.6.6.6.6.6.6.6.6.6.6.6.6.6.6.6.6.6.6.6.6.6.6.6.6.6.6.6.6.6.6.6.6.6.6.6.6.",
"6.6.6.6.6.6.6.6.6.6.6.6.6.6.6.6.6.6.6.6.6.6.6.6.6.6.6.6.6.6.6.6.6.6.6.6.6.6.6.6.6.6.6.6.6.6.6.6.6.6.6.6.6.6.6.6.6.6.6.6.6.6.6.6.",
"6.6.6.6.6.6.6.6.6.6.6.6.6.6.6.6.6.6.6.6.6.6.6.6.6.6.6.6.6.6.6.6.6.6.6.6.6.6.6.6.6.6.6.6.6.6.6.6.6.6.6.6.6.6.6.6.6.6.6.6.6.6.6.6.",
"6.6.6.6.6.6.6.6.6.6.6.6.6.6.6.6.6.6.6.6.6.6.6.6.6.6.6.6.6.6.6.6.6.6.6.6.6.6.6.6.6.6.6.6.6.6.6.6.6.6.6.6.6.6.6.6.6.6.6.6.6.6.6.6.",
"6.6.6.6.6.6.6.6.6.6.6.6.6.6.6.6.6.6.6.6.6.6.6.6.6.6.6.6.6.6.6.6.6.6.6.6.6.6.6.6.6.6.6.6.6.6.6.6.6.6.6.6.6.6.6.6.6.6.6.6.6.6.6.6.",
"6.6.6.6.6.6.6.6.6.6.6.6.6.6.6.6.6.6.6.6.6.6.6.6.6.6.6.6.6.6.6.6.6.6.6.6.6.6.6.6.6.6.6.6.6.6.6.6.6.6.6.6.6.6.6.6.6.6.6.6.6.6.6.6.",
"6.6.6.6.6.6.6.6.6.6.6.6.6.6.6.6.6.6.6.6.6.6.6.6.6.6.6.6.6.6.6.6.6.6.6.6.6.6.6.6.6.6.6.6.6.6.6.6.6.6.6.6.6.6.6.6.6.6.6.6.6.6.6.6.",
"6.6.6.6.6.6.6.6.6.6.6.6.6.6.6.6.6.6.6.6.6.6.6.6.6.6.6.6.6.6.6.6.6.6.6.6.6.6.6.6.6.6.6.6.6.6.6.6.6.6.6.6.6.6.6.6.6.6.6.6.6.6.6.6.",
"6.6.6.6.6.6.6.6.6.6.6.6.6.6.6.6.6.6.6.6.6.6.6.6.6.6.6.6.6.6.6.6.6.6.6.6.6.6.6.6.6.6.6.6.6.6.6.6.6.6.6.6.6.6.6.6.6.6.6.6.6.6.6.6.",
"6.6.6.6.6.6.6.6.6.6.6.6.6.6.6.6.6.6.6.6.6.6.6.6.6.6.6.6.6.6.6.6.6.6.6.6.6.6.6.6.6.6.6.6.6.6.6.6.6.6.6.6.6.6.6.6.6.6.6.6.6.6.6.6.",
"6.6.6.6.6.6.6.6.6.6.6.6.6.6.6.6.6.6.6.6.6.6.6.6.6.6.6.6.6.6.6.6.6.6.6.6.6.6.6.6.6.6.6.6.6.6.6.6.6.6.6.6.6.6.6.6.6.6.6.6.6.6.6.6.",
"6.6.6.6.6.6.6.6.6.6.6.6.6.6.6.6.6.6.6.6.6.6.6.6.6.6.6.6.6.6.6.6.6.6.6.6.6.6.6.6.6.6.6.6.6.6.6.6.6.6.6.6.6.6.6.6.6.6.6.6.6.6.6.6.",
"6.6.6.6.6.6.6.6.6.6.6.6.6.6.6.6.6.6.6.6.6.6.6.6.6.6.6.6.6.6.6.6.6.6.6.6.6.6.6.6.6.6.6.6.6.6.6.6.6.6.6.6.6.6.6.6.6.6.6.6.6.6.6.6."
};
