/* XPM */
static char *result[] = {
/* columns rows colors chars-per-pixel */
"64 64 151 2 ",
"   c black",
".  c #000015",
"X  c #00001C",
"o  c #00003C",
"O  c #000045",
"+  c #00004D",
"@  c #000059",
"#  c #23265E",
"$  c #00006C",
"%  c #181C60",
"&  c #000077",
"*  c #00007C",
"=  c #2E2A6A",
"-  c #35376D",
";  c #232772",
":  c #292D70",
">  c #303379",
",  c #3D4462",
"<  c #254870",
"1  c #515151",
"2  c #58577E",
"3  c #5C5E7E",
"4  c #656565",
"5  c #6F6F6F",
"6  c #606B77",
"7  c #797877",
"8  c #000085",
"9  c #4C4C86",
"0  c #4D508B",
"q  c #595B8B",
"w  c #456A93",
"e  c #696A82",
"r  c #6E7096",
"t  c #717296",
"y  c #727499",
"u  c #557CA8",
"i  c #73849B",
"p  c #5D82AC",
"a  c #5684B6",
"s  c #5E86B3",
"d  c #5C89BB",
"f  c #6B85A4",
"g  c #6F88A7",
"h  c #6386AE",
"j  c #6A87A9",
"k  c #6B88AB",
"l  c #738AA6",
"z  c #7A8EA7",
"x  c #748EAE",
"c  c #7E91A9",
"v  c #6489B3",
"b  c #6E8EB4",
"n  c #628BBA",
"m  c #6C91BC",
"M  c #7791B1",
"N  c #7A93B1",
"B  c #7D97B8",
"V  c #5E8EC2",
"C  c #5E92CB",
"Z  c #6791C1",
"A  c #6992C0",
"S  c #6294CB",
"D  c #6197D1",
"F  c #6298D4",
"G  c #6A9CD2",
"H  c #659DDA",
"J  c #66A2E2",
"K  c #69A4E3",
"L  c #6AA6E8",
"P  c #6DA9EB",
"I  c #78B0EE",
"U  c #6EACF1",
"Y  c #71AEF2",
"T  c #73B1F6",
"R  c #75B4F9",
"E  c #79B7FB",
"W  c #7DBAFE",
"Q  c #8E8E92",
"!  c #83849F",
"~  c #97979B",
"^  c #9A9A99",
"/  c #808EA1",
"(  c #8E8FA5",
")  c #8492A3",
"_  c #8995A4",
"`  c #8396AE",
"'  c #8896A8",
"]  c #8D99AB",
"[  c #919BA7",
"{  c #9A9FA6",
"}  c #939DAC",
"|  c #8A9BB0",
" . c #869DB9",
".. c #939FB1",
"X. c #9BA0A6",
"o. c #9AA2AC",
"O. c #93A1B4",
"+. c #9AA4B2",
"@. c #9EA9B6",
"#. c #A4A4A4",
"$. c #A2A6AB",
"%. c #A5A9AF",
"&. c #ABABAC",
"*. c #A6AAB0",
"=. c #A5AEB8",
"-. c #ADAEB9",
";. c #B4B4B5",
":. c #B8B7B7",
">. c #BBB9B5",
",. c #B2B6BD",
"<. c #BDBDBD",
"1. c #C0BEBB",
"2. c #C5C2BE",
"3. c #AFB6C0",
"4. c #BCBDC1",
"5. c #82BCFF",
"6. c #85C1FF",
"7. c #88C2FF",
"8. c #C3C3C3",
"9. c #C8C6C3",
"0. c #CECAC5",
"q. c #C3C3C8",
"w. c #CCCCCC",
"e. c #D3CEC6",
"r. c #D2CFCA",
"t. c #D3D1CE",
"y. c #D9D3CA",
"u. c #D8D8CF",
"i. c #D4D4D3",
"p. c #D9D6D0",
"a. c #DCD9D5",
"s. c #DCDCDA",
"d. c #E0DCD6",
"f. c #E2DEDA",
"g. c #E2E0DD",
"h. c #D6F0FB",
"j. c #DAF1FB",
"k. c #E3E2E2",
"l. c #E9E6E1",
"z. c #ECEAE5",
"x. c #EDECEC",
"c. c #F1EEEA",
"v. c #F4F0EC",
"b. c #E4F5FC",
"n. c #EBF7FC",
"m. c #EDF8FD",
"M. c #F5F4F3",
"N. c #FAF7F3",
"B. c #FBFAF5",
"V. c #F4FAFD",
"C. c #FFFFFF",
/* pixels */
"5.5.5.5.5.5.5.5.5.5.5.5.5.5.5.5.5.5.5.5.5.5.5.5.5.5.5.5.5.5.5.5.5.5.5.5.5.5.5.5.5.5.5.5.5.5.5.5.5.5.5.5.5.5.5.5.5.5.5.5.5.5.5.5.",
"5.5.5.5.5.5.5.5.5.5.5.5.5.5.5.5.5.5.5.5.5.5.5.5.5.5.5.5.5.5.5.5.5.5.5.5.5.5.5.5.5.5.5.5.5.5.5.5.5.5.5.5.5.5.5.5.5.W 5.5.5.5.5.5.",
"5.5.5.5.5.5.5.5.5.5.5.5.5.5.5.5.5.5.5.5.5.5.5.5.5.5.5.5.5.5.5.5.5.5.5.5.5.5.5.5.5.5.5.5.5.5.5.5.5.5.5.5.5.5.5.5.5.5.5.5.5.5.5.5.",
"5.5.5.5.5.5.5.5.5.5.5.5.5.W 5.5.5.5.5.5.5.5.5.5.5.5.5.5.5.5.5.5.5.5.5.5.5.5.5.5.5.5.5.5.5.5.5.5.5.5.5.5.5.5.5.5.5.5.5.5.5.5.5.5.",
"5.5.5.5.5.5.5.5.5.5.5.5.5.5.5.5.5.5.5.5.5.5.5.5.5.5.5.5.5.5.5.5.5.5.5.5.5.5.5.5.5.5.5.5.5.5.5.5.5.5.5.5.5.5.5.5.5.5.5.5.5.5.5.5.",
"5.5.5.5.5.5.5.5.5.5.5.5.5.5.5.5.5.5.5.5.5.5.5.5.5.5.5.5.5.5.5.5.5.5.5.5.5.5.5.5.5.5.5.5.5.5.5.5.5.5.5.5.5.5.5.5.5.5.5.5.5.5.5.5.",
"5.5.5.5.5.5.5.5.5.5.5.5.5.5.5.5.5.5.5.5.5.5.5.5.5.5.5.5.5.5.5.5.5.5.5.5.5.5.5.5.5.5.5.5.5.5.5.5.5.5.5.5.5.5.5.5.5.5.5.5.5.5.5.5.",
"5.5.5.5.5.5.5.5.5.5.5.5.5.5.5.5.5.5.5.5.5.5.5.5.5.5.5.5.5.5.5.5.5.5.5.5.5.5.5.5.5.5.5.5.5.5.5.5.5.5.5.5.5.5.5.5.5.5.5.5.5.5.5.5.",
"5.5.5.5.5.5.5.5.5.5.5.5.5.5.5.5.5.5.5.7.5.R T E 6.7.5.5.5.5.5.5.5.5.5.5.5.5.5.5.5.5.5.5.5.5.5.5.5.5.5.5.5.5.5.5.5.5.5.5.5.5.5.5.",
"5.5.5.5.5.5.5.5.5.5.5.5.5.5.5.5.5.7.T S B O.@.| m P 5.5.5.5.5.5.5.5.5.5.5.5.5.5.5.5.5.5.5.7.7.7.5.5.5.5.5.5.5.5.5.5.5.5.5.5.5.5.",
"5.5.5.5.5.5.5.5.5.5.5.5.5.5.5.5.6.D } a.B.C.C.C.c.{ H 7.5.5.5.5.5.5.5.5.5.5.5.5.5.5.5.7.R J J L W 7.5.5.5.5.5.5.5.5.5.5.5.5.5.5.",
"5.5.5.5.5.5.5.5.5.5.5.5.5.5.5.5.S >.C.C.C.C.C.C.C.C.~ Y 7.5.6.5.5.5.5.5.5.5.5.5.5.5.5.Z O.8.0.4.` D 6.5.5.5.5.5.5.5.5.5.5.5.5.5.",
"5.5.5.5.5.5.5.5.5.5.5.5.5.5.5.P { C.C.C.k.x.C.C.C.C.g.u R U U U I Y U R E W 6.7.7.6.s 0.C.C.C.C.C.2.n 5.5.5.5.5.5.5.5.5.5.5.5.5.",
"5.5.5.5.5.5.5.5.5.5.5.5.5.5.7.D 0.C.B.C.&.&.8.C.C.C.C.a.o.@.3.3.3.,.=.+.O. .m G K a 8.C.C.C.C.B.B.C.2.S 7.5.5.5.5.5.5.5.5.W 5.5.",
"5.5.5.5.5.5.5.5.5.5.5.5.5.5.7.D t.C.C.C.C.:.<.C.C.C.C.C.C.C.C.C.C.C.C.C.C.B.v.s.0.g.C.C.C.C.8.&.M.C.C.z W 5.5.5.5.5.5.5.5.5.5.5.",
"5.5.5.5.5.5.5.5.5.5.5.5.5.5.7.K -.C.C.C.C.M.C.C.C.C.C.C.C.C.C.C.C.C.C.C.C.C.C.C.C.C.C.C.B.C.^ ^ C.C.C.} T 5.5.5.5.5.5.5.5.5.5.5.",
"5.5.5.5.5.5.5.5.5.5.5.5.5.5.5.W ` C.C.C.C.C.C.C.C.C.C.C.C.C.C.C.C.C.C.C.C.C.C.C.C.C.C.C.C.B.s.x.C.C.B.l W 5.5.5.5.5.5.6.5.5.5.5.",
"5.5.5.5.5.5.5.5.5.5.5.5.5.W 7.T ) C.C.C.C.C.C.C.C.C.C.C.C.C.C.C.C.C.C.C.C.C.C.C.C.C.C.C.C.C.C.C.B.C.1.D 7.5.5.5.5.5.5.5.5.5.5.5.",
"5.5.5.5.5.5.5.5.5.5.5.5.5.5.E i z.C.C.C.C.C.C.C.C.C.C.C.C.C.C.C.C.C.C.C.C.C.C.C.C.C.C.C.C.C.C.C.C.z.v 5.5.5.5.5.5.5.5.5.5.5.5.5.",
"5.5.5.5.5.5.5.5.5.5.5.5.5.5.f g.C.C.C.C.C.C.C.C.C.C.C.C.C.C.C.C.C.C.C.C.C.C.C.C.C.C.C.C.C.C.C.C.C.f.d 7.W 5.5.5.5.5.5.5.5.5.5.5.",
"5.5.5.5.5.5.5.5.5.5.5.5.7.d p.C.C.C.C.C.C.C.C.C.C.C.C.C.C.C.C.C.C.C.C.C.C.C.C.C.C.C.C.C.C.C.C.C.C.C.$.K 7.5.5.5.5.5.5.5.5.5.5.5.",
"5.5.5.5.5.5.5.5.5.5.5.6.K %.C.B.C.C.C.C.C.C.C.C.C.C.C.C.C.C.C.C.C.C.C.C.C.C.C.C.C.C.C.C.C.C.C.C.C.C.c.h 6.5.5.5.5.W 6.5.5.5.5.5.",
"5.5.5.5.6.5.5.5.5.5.5.5.k c.C.C.C.C.C.C.C.C.C.C.C.C.C.C.C.C.C.C.C.C.C.C.C.C.C.C.C.C.C.C.C.C.C.C.C.C.C.$.L 6.5.5.5.5.5.5.5.5.5.6.",
"5.5.5.5.W 5.5.5.5.5.7.P *.C.C.C.C.C.C.C.C.C.C.C.C.C.C.C.C.C.C.C.C.C.C.C.C.C.C.C.C.C.C.C.C.C.C.C.C.C.C.t.Z 6.5.5.5.5.5.5.5.5.5.W ",
"5.5.5.5.5.5.5.5.5.5.7.V p.C.C.C.C.C.C.C.C.C.C.C.C.C.C.C.C.C.C.C.C.C.C.C.C.C.C.C.C.C.C.C.C.C.C.C.C.C.C.c.b 6.5.5.5.5.5.5.5.5.5.5.",
"5.5.5.5.5.5.5.5.5.5.5.b c.C.C.C.C.C.C.C.C.C.C.C.C.C.C.C.C.C.C.C.C.C.C.C.C.C.C.C.C.C.C.C.C.C.C.C.C.C.C.B.c 5.5.5.5.5.5.5.5.5.5.5.",
"5.5.5.5.5.5.5.5.5.5.W c B.C.C.C.C.C.C.C.C.C.C.C.C.C.C.C.C.C.C.C.C.C.C.C.C.C.C.C.C.C.C.C.C.C.C.C.C.C.C.C.' R 5.5.5.5.5.5.5.5.5.5.",
"5.5.5.5.5.W 5.5.5.5.R ] C.C.C.C.C.C.C.V.V.V.C.C.C.C.C.C.s.x.C.C.C.x.k.C.C.C.C.C.C.C.C.C.C.C.C.C.C.C.C.C.} T 5.5.5.5.5.5.5.5.5.5.",
"5.5.5.5.5.5.5.5.5.6.T O.C.C.C.C.C.m.j.h.j.h.j.C.C.C.C.C.4 8.C.C.C.:.5 C.C.C.C.V.b.j.b.b.V.C.C.C.C.C.C.C.] T 5.5.5.W 5.5.5.5.5.5.",
"5.5.5.5.5.5.5.5.5.5.R ) C.C.C.C.V.h.h.j.j.j.h.j.C.C.C.C.C.k.7 7 a.C.C.C.C.C.V.h.h.h.j.h.h.V.C.C.C.C.C.C.c W 7.5.5.5.5.5.5.5.5.5.",
"5.5.5.5.5.5.5.5.5.5.5.x v.C.C.C.b.h.j.j.j.j.j.h.m.C.C.M.w.4     1 w.C.C.C.C.j.j.j.j.j.j.h.j.C.C.C.C.C.c.b 5.5.5.5.5.5.5.5.5.5.5.",
"5.5.5.5.5.5.5.5.5.5.7.Z a.C.C.C.j.j.j.j.j.j.j.h.V.C.M.#.s.x.8.8.x.i.#.C.C.V.h.j.j.j.j.j.j.j.V.C.C.C.C.0.S 5.5.5.5.5.5.5.5.5.5.5.",
"5.5.5.5.5.5.5.5.5.5.7.P { C.C.C.j.h.j.j.j.j.j.j.C.C.t.8.C.C.C.C.C.C.q.i.C.m.h.j.j.j.j.j.h.j.C.C.C.C.C._ T 5.5.5.5.5.5.5.5.5.5.5.",
"5.5.5.5.5.5.5.5.5.5.5.7.d r.C.C.b.h.j.h.j.h.h.n.C.C.k.%.C.C.C.C.C.C.:.a.C.V.h.j.j.j.j.j.h.m.C.C.V.C.8.C 7.W 5.5.5.5.5.5.5.5.5.5.",
"5.5.5.5.5.5.5.5.5.5.5.5.5.f l.C.C.b.j.j.j.j.n.C.C.C.C.0.&.a.s.k.a.-.1.C.C.C.n.h.h.h.h.h.b.C.C.C.C.a.h 5.5.5.5.5.5.5.5.5.5.5.5.5.",
"5.5.5.5.5.5.5.5.5.5.5.5.5.E g d.C.C.B.V.C.C.C.C.C.C.C.C.x.i.w.w.i.x.C.C.C.C.C.V.m.m.m.V.C.C.C.C.t.h 5.5.5.5.5.5.5.5.5.5.5.5.5.5.",
"5.5.5.5.5.5.5.5.5.5.5.5.5.5.W n ;.N.C.C.C.C.C.C.C.C.C.C.C.C.C.C.C.C.C.C.C.C.C.C.C.C.C.C.C.C.v.&.d 6.5.5.5.5.5.5.5.5.5.5.5.5.5.5.",
"5.5.5.W 5.5.5.5.5.5.5.5.5.5.5.5.J x <.z.C.C.C.C.C.C.C.C.C.C.B.C.B.B.C.C.C.C.C.C.C.C.C.C.z.:.k K 7.5.5.5.5.5.5.5.5.5.5.5.5.5.5.5.",
"5.5.5.5.5.5.5.5.5.5.5.5.5.5.5.W 7.5.J m O.8.g.M.C.B.B.C.C.C.C.C.C.C.C.C.C.C.C.C.B.k.4...A L 5.7.5.5.5.5.5.5.5.5.5.5.5.5.5.5.5.5.",
"5.5.5.5.5.5.5.5.5.5.5.5.5.5.5.5.5.5.6.6.R H G g 2 0 q y ( 3.r.4.w.a.q.-.} ! r 9 = w P R 6.6.5.5.5.5.5.5.5.5.5.5.5.5.5.5.5.5.5.5.",
"5.5.5.5.5.5.5.5.5.5.5.5.5.5.5.5.5.5.5.5.5.7.5.< $ * & & $ @ . + X o O - : ; > > 0 , I 7.5.5.5.5.5.5.5.5.5.5.5.5.5.5.5.5.5.5.5.6.",
"5.5.5.5.5.5.5.5.5.5.5.5.5.5.5.5.5.5.5.5.5.I i g.z.k.x.u.# 8 % ~ Q @ & Q C.C.N.N.C.z.i W 5.5.5.5.5.5.5.5.5.5.5.5.5.5.5.5.5.5.5.5.",
"5.5.5.5.5.5.5.5.5.5.5.5.5.5.5.5.5.5.5.5.6.p g.C.C.C.C.8.3 o.k.C.C.8.t e 1.M.C.C.C.C.a.s 7.5.5.5.5.5.5.5.5.5.5.5.5.5.5.5.5.5.5.5.",
"5.5.5.5.5.5.5.5.5.5.5.5.5.5.5.5.5.5.5.6.L #.C.C.k.8.C.M.C.C.C.C.C.C.C.C.Q w.C.<.z.C.C.X.P 5.5.5.5.5.5.5.5.5.5.5.5.5.5.5.5.5.5.5.",
"5.5.5.5.5.5.5.5.5.5.5.5.5.5.5.5.5.5.5.7.V a.C.C.i.<.C.C.C.C.C.C.C.C.C.C.C.C.C.:.i.C.C.p.C 7.5.5.5.5.5.5.5.W 5.5.5.5.5.5.5.5.5.5.",
"5.5.5.5.5.5.5.5.5.5.5.5.5.5.5.5.5.5.5.7.V e.C.C.>.<.C.C.C.C.C.C.C.C.C.C.C.B.C.:.8.C.C.0.C 7.5.5.5.5.5.5.5.5.5.5.5.5.5.5.5.5.5.5.",
"5.5.5.5.5.5.5.5.5.5.5.5.5.5.5.5.5.5.5.5.W g 9.s.2 <.C.B.C.C.C.C.C.C.C.C.C.C.C.;.6 s.2.k W 5.5.5.5.5.5.5.5.5.5.5.5.5.5.5.5.5.5.5.",
"5.5.5.5.5.5.5.5.5.5.5.5.5.5.5.5.5.5.5.5.5.W H G J $.C.C.C.C.C.C.C.C.C.C.C.C.C.o.J G H W 5.5.5.5.5.5.5.5.5.5.5.5.5.5.5.5.5.5.5.5.",
"5.5.5.5.5.5.5.5.5.5.5.5.5.5.5.5.5.5.5.5.5.5.5.7.5.g v.C.C.C.C.C.C.C.C.C.C.C.v.j 6.7.6.5.5.5.5.5.5.5.5.5.5.5.5.5.5.5.5.5.5.5.5.5.",
"5.5.5.5.5.5.5.5.5.5.5.5.5.5.5.5.5.5.5.5.5.5.5.5.7.S 9.C.C.C.C.C.C.C.C.C.C.C.<.S 7.5.5.5.5.5.5.5.5.5.5.5.5.5.5.5.5.5.5.5.5.5.5.5.",
"5.5.5.5.5.5.5.5.5.5.5.5.5.5.5.5.5.5.5.5.5.5.5.5.6.P o.C.C.C.C.C.s.C.C.C.C.C.[ T 6.5.5.5.5.5.5.5.5.5.5.5.5.5.5.5.5.5.5.5.5.5.5.5.",
"5.5.5.5.5.5.5.5.5.5.5.5.5.5.5.5.5.5.5.5.5.5.5.5.5.T } C.C.C.C.B.~ C.C.C.C.C.) R 5.5.5.5.5.5.5.5.5.5.5.5.5.5.5.5.5.5.5.5.5.5.5.5.",
"5.5.5.5.5.5.5.5.5.5.5.W 5.5.5.5.5.5.5.5.5.5.5.5.7.E / C.C.C.C.C.#.C.C.C.C.C.c W 5.5.5.5.5.5.5.5.5.5.5.5.5.5.5.5.5.5.5.5.5.5.5.5.",
"5.5.5.5.5.5.5.5.5.5.5.5.5.5.5.5.5.5.5.5.5.5.5.5.5.6.h y.C.C.C.x.7 N.C.C.C.0.n 6.5.5.5.5.5.5.5.5.5.5.5.5.5.5.5.5.5.5.5.5.5.5.5.5.",
"5.5.5.5.5.5.5.5.5.5.5.5.5.5.5.5.5.5.5.5.5.5.5.5.5.5.W n ] +.+.M F N o.+.] m 5.5.5.5.5.5.5.5.5.5.5.5.5.5.5.5.5.W 5.5.5.5.5.5.5.5.",
"5.W 5.5.5.5.5.5.5.5.5.5.5.5.5.5.5.5.5.5.5.5.5.5.5.5.5.7.W U R W 7.W T T E 6.5.5.5.5.5.5.5.5.5.5.5.5.5.5.5.5.5.5.5.5.5.5.5.5.5.5.",
"5.5.5.5.5.5.5.5.5.5.5.5.5.5.5.5.5.5.5.5.5.5.5.5.5.5.5.5.5.5.5.5.5.5.5.7.5.5.5.5.5.5.5.5.5.5.W 5.5.W 5.5.5.5.5.5.5.5.5.5.5.5.5.5.",
"5.5.5.5.5.5.5.W 5.5.5.5.5.5.5.5.5.5.5.5.5.5.5.5.5.5.5.5.5.5.5.5.5.5.5.5.5.5.5.5.5.5.5.5.5.5.6.5.5.5.5.5.5.5.5.5.5.5.5.5.5.5.5.5.",
"5.5.5.5.5.5.5.5.5.5.5.5.5.5.5.5.5.5.5.5.5.5.5.5.5.5.5.5.5.5.5.5.5.5.5.5.5.5.5.5.6.W 5.5.5.5.5.5.5.5.5.5.5.5.5.5.5.5.5.5.5.5.5.5.",
"5.5.5.5.5.5.5.5.5.5.5.5.5.5.5.5.5.5.5.5.5.5.5.5.5.5.5.5.5.5.5.5.5.5.5.5.5.5.5.5.5.5.5.5.5.5.5.5.5.5.5.5.5.5.5.5.5.5.5.W 5.5.5.5.",
"5.5.5.5.5.5.5.5.5.5.5.5.5.5.5.5.5.5.5.5.5.5.5.5.5.5.5.5.5.5.5.5.5.5.5.5.5.5.5.5.5.5.5.5.5.5.5.5.5.5.5.5.5.5.5.5.5.5.5.5.5.5.5.5.",
"5.5.5.5.5.5.5.5.5.5.5.5.5.5.5.5.5.5.5.5.5.5.5.5.5.5.5.5.5.5.5.5.5.5.5.5.5.5.5.5.5.5.5.5.5.5.5.5.5.5.5.5.5.5.5.5.5.5.5.5.5.5.5.5.",
"5.5.5.5.5.5.5.5.5.5.5.5.5.5.5.5.5.5.5.5.5.5.5.5.5.5.5.5.5.5.5.5.5.5.5.5.5.5.5.5.5.5.5.5.5.5.5.5.5.5.5.5.5.5.5.5.5.5.5.5.5.5.5.5.",
"5.5.5.5.5.5.5.5.5.5.5.5.5.5.5.5.5.5.5.5.5.5.5.5.5.6.5.5.5.5.5.5.5.5.5.5.5.5.5.5.5.5.5.5.5.5.5.5.5.5.5.5.5.5.5.5.5.5.5.5.5.5.5.5."
};
