/* XPM */
static char *result[] = {
/* columns rows colors chars-per-pixel */
"64 64 243 2 ",
"   c #001C4C",
".  c #021F52",
"X  c #01204E",
"o  c #032254",
"O  c #0A2656",
"+  c #04245B",
"@  c #012A5D",
"#  c #0A295A",
"$  c #022663",
"%  c #022B64",
"&  c #082C64",
"*  c #022D6A",
"=  c #092E69",
"-  c #022568",
";  c #043065",
":  c #02326C",
">  c #09336D",
",  c #083769",
"<  c #113C6F",
"1  c #012E72",
"2  c #0E2D70",
"3  c #023473",
"4  c #0A3372",
"5  c #033A75",
"6  c #0A3B75",
"7  c #02357A",
"8  c #023C7B",
"9  c #0B3D7B",
"0  c #083578",
"q  c #123B79",
"w  c #004376",
"e  c #02417D",
"r  c #0B417D",
"t  c #03497D",
"y  c #0D4077",
"u  c #12407E",
"i  c #013E82",
"p  c #083E81",
"a  c #053F88",
"s  c #024383",
"d  c #0A4483",
"f  c #034A85",
"g  c #0A4A86",
"h  c #02458A",
"j  c #09468A",
"k  c #034A8C",
"l  c #0B4C8C",
"z  c #114383",
"x  c #104884",
"c  c #134D8B",
"v  c #03528D",
"b  c #0C528D",
"n  c #05588A",
"m  c #12538F",
"M  c #044D92",
"N  c #0A4D93",
"B  c #004590",
"V  c #114E91",
"C  c #035394",
"Z  c #0B5393",
"A  c #035B95",
"S  c #0B5B95",
"D  c #045599",
"F  c #0C559A",
"G  c #055A9B",
"H  c #0B5B9D",
"J  c #115494",
"K  c #135A95",
"L  c #12559A",
"P  c #155B9C",
"I  c #1A5B98",
"U  c #215A9A",
"Y  c #0C6392",
"T  c #08659C",
"R  c #14639C",
"E  c #1B639C",
"W  c #1B6B9D",
"Q  c #186694",
"!  c #14618F",
"~  c #216A96",
"^  c #26729C",
"/  c #025CA2",
"(  c #0B5DA2",
")  c #135DA2",
"_  c #1B5DA3",
"`  c #0562A2",
"'  c #0C63A3",
"]  c #0969A9",
"[  c #1363A4",
"{  c #1B63A4",
"}  c #136CA3",
"|  c #1B6AA4",
" . c #1465AA",
".. c #1A65AA",
"X. c #156BAB",
"o. c #1A6BAC",
"O. c #1D7BAB",
"+. c #1A72A9",
"@. c #1E6DB1",
"#. c #0D72B6",
"$. c #1B78B7",
"%. c #0F71AE",
"&. c #236EAB",
"*. c #2368A5",
"=. c #2A74A4",
"-. c #2373AC",
";. c #237BAB",
":. c #2C7CAD",
">. c #2974A8",
",. c #327EAB",
"<. c #347EAB",
"1. c #2275B3",
"2. c #237CB4",
"3. c #2B7DBD",
"4. c #2878B7",
"5. c #317CB8",
"6. c #276FB3",
"7. c #167AC3",
"8. c #2D7DC2",
"9. c #1C84B6",
"0. c #2181AD",
"q. c #3481AC",
"w. c #3B84AD",
"e. c #2B84B5",
"r. c #2685BB",
"t. c #2D85BB",
"y. c #2988B7",
"u. c #3483B3",
"i. c #3B86B3",
"p. c #3B8AB5",
"a. c #3285BC",
"s. c #348ABC",
"d. c #3C8CBB",
"f. c #3589B7",
"g. c #2691BE",
"h. c #3B92BB",
"j. c #418EBB",
"k. c #468BB6",
"l. c #4592BE",
"z. c #4D94BC",
"x. c #5295BD",
"c. c #4E87B2",
"v. c #6394BD",
"b. c #1D83C3",
"n. c #2B88C5",
"m. c #3383C5",
"M. c #3D8CC4",
"N. c #388AC9",
"B. c #2C95C8",
"V. c #3494C7",
"C. c #3492CD",
"Z. c #3D94CC",
"A. c #3996C7",
"S. c #389AD2",
"D. c #3192D5",
"F. c #3DA6D9",
"G. c #3AA0E0",
"H. c #5D8DC2",
"J. c #4593C2",
"K. c #4A95C2",
"L. c #4C9AC6",
"P. c #4294CD",
"I. c #4D9CCA",
"U. c #4798C9",
"Y. c #529DCA",
"T. c #579AC4",
"R. c #4B9CD4",
"E. c #4598D6",
"W. c #4E96CC",
"Q. c #4DA0CC",
"!. c #54A2CD",
"~. c #5CA4CD",
"^. c #5BABCE",
"/. c #57A6C7",
"(. c #43A2D4",
"). c #4DA4D5",
"_. c #48A6DB",
"`. c #53A4D4",
"'. c #5BA5D3",
"]. c #5CA9D3",
"[. c #5BA6DB",
"{. c #5CABDC",
"}. c #55A8DC",
"|. c #5EB3DB",
" X c #66A6CB",
".X c #63ADDB",
"XX c #67AAD5",
"oX c #74ADD9",
"OX c #63B1DC",
"+X c #6BB1DC",
"@X c #66B4D6",
"#X c #73B5DD",
"$X c #78B6DE",
"%X c #76B8D8",
"&X c #4D9EE0",
"*X c #4AAAE1",
"=X c #53A4E3",
"-X c #5AACE8",
";X c #59B3E5",
":X c #54B5EE",
">X c #64B3E4",
",X c #6CB4E2",
"<X c #6BBBEA",
"1X c #66B8E7",
"2X c #73BBE1",
"3X c #7ABDE3",
"4X c #74BDEA",
"5X c #7BBDE9",
"6X c #75B6E5",
"7X c #67BBF2",
"8X c #75BEF3",
"9X c #64ADE2",
"0X c #6195C7",
"qX c #69C0EE",
"wX c #7BC2E5",
"eX c #7DC5EC",
"rX c #7AC5E5",
"tX c #73C3F2",
"yX c #7AC6F5",
"uX c #72CAFA",
"iX c #8BBEEC",
"pX c #85C8EB",
"aX c #90C6EA",
"sX c #8DCCF3",
"dX c #86CAF6",
"fX c #94CAF3",
"gX c #83D2FE",
"hX c #8DD3FC",
"jX c #8AD6F9",
"kX c #93D4F4",
"lX c #94D5FD",
"zX c #94DAFE",
"xX c #9ADAFE",
"cX c #99D5F8",
"vX c #95D2EE",
"bX c #A3DCFF",
"nX c #ACD6FC",
"mX c #AAD3FA",
"MX c #9DE1FF",
"NX c #91E2FF",
"BX c #A3E3FF",
"VX c #ABEAFF",
"CX c #A9F4FF",
/* pixels */
": , 5 w 5 e l K 5.P.E.8.) ( ( B .. .7.8.F ..m.G k k C Z [ { J f s D  .X.] @.o.h N i 1 i i a B a i i 1 i i 3 5 h b f P -.H S 3.S.",
": : , 5 8 t g m h &.E.N... .] M ) / 8.8.F / ( G k h f v P K b h f s H $.+.G S [ L a a a i a N F i N a _ *.d 5 5 8 e l P S C ) m.",
": : : 5 8 r g g l ) N.=X8.D B ( ( M 8.6.D M B ..G s i h Z h s s S C H X.' G C h L a a a i N ....F .._ 6.6.J s 8 t b Q >.M.6.| a.",
": : ; : e d d t l k ..N.8.M D 7.( D @.( B D / 8.@.D f k k 8 7 i M M G H H [ ( M L a a a a L .. .( ..D N M s t t 5 b =.'.dX8X[.`.",
": : * 3 6 d s 8 e k S ( D D D G D F D D C D o.8.3.H k C N s e g s h G  .T G H ) ) j N V j C D k D / a i i 7 f g c ~ L.dXlXgX5X'.",
"* * * > 6 8 8 5 t k C S / C k C F F B M C M [ o.m...Z Z F Z N F h C R ' / [ [ M h a L V h h k C D  ./ B  ._ -.>.=.<.+XdX+X Xx.k.",
"$ * > 4 4 5 7 8 8 e f [ X.A A $.o.M M M k M D o.m.4.) H F F N M s M H '  .1...k i i N N i h D H / 7.7.7.D.E.=X[. X#XkXxXvXpX%X X",
"$ * 4 q 3 : 3 5 5 f k C S v D 1.m.k M M h C F m.E.N.6.) F N s 7 D M [ 3.@.G C Z h i a h i h D G ] 7.7.7.N.=XtXyX.XpXsXcXVXvXoX X",
"= * > 4 0 9 9 t 5 8 s v S f A 3.5.M N F h k [ N.-X-X4...) B i a M [ 1.1.' v s h i h i h h i M D 7./ 7.] n._.}.<X.XT.rXxXkXvXpX%X",
"* * * 4 0 6 d d 3 8 5 8 k v v R N i M N h M M F E.E.) D F D a B N F ) H C h h h h i 1 a M M ( ` 7.D.*XB.*XuXuX1X!.~.kXxXlXBXcXpX",
"- 1 * 0 9 9 r d 8 l g 5 f S S Z N i h k h M C C E.N.N N ) L M N M M Z D C M M h B a i j L S ' ` #.B.G.D.C.V.P.q.:.w.2XzXkXpX Xc.",
"* * > 4 6 9 r d t J K f t b K Z *.j i N Z C Z { 8.8.( F L ( N F l M D P [ [ D k h N N _ ..S G A / ` ` T T | e.J.p./.hXhX#X^./.z.",
"* 1 * 3 0 9 r r 9 e t w 5 e t s l d s Z P M h B _ ..N ( N M B N M M C F X.[ F M a B _ _ _ D C ` #.n.F.n.r.;X<XtXL.I.].l.f.!..X>X",
"* * * 3 5 9 9 r g 3 * 5 5 e 8 3 7 N k j Z M h i N  .F ) D B B B B h h k D S S C a h L ) M M T $.r.S.:XC.t.qX}.I.<XI.`.{.;X|.}.<X",
"* * 3 3 5 8 9 r c 5 3 e e r f 5 8 I j s j h B h D  .F ) N B M h h s i h h M C M h i N M B M G $.C.(.E.y.;.}.`.`.>X>XgXNXuXR.a.).",
"* * * 3 5 9 9 9 g 5 8 e 5 r x e 8 l s s f 3 a a a a a B B N F M 7 i h k M k h s h i N N M C k ` A t.2.e.2.).).s.).>X8X>X7XgX;XZ.",
"q 2 1 1 1 7 p g d d 5 3 : : 6 w t f t t e 5 5 3 j j h i i N F N s e e e s s j M h M M D D ` ] %.%.A T O.y.} 0.f.).{.[.0XW.9X6X1X",
"2 * - - 1 3 p d f d 8 3 3 : , y g f g t f e 8 5 p p p i i N N l s e 8 5 5 8 h j i M / ' ` ` #.7.S.r.r.+.B.;XS.).[.[.9X'.W.5.j.Y.",
"- - - - 1 3 i d d d 8 3 : : 5 5 t f b b g f 8 5 p j j i i l N j s e 8 5 7 7 a j N )  . .` ] b.S._.Z.$.T y.*X_.;X4X8X6X.X.X+X.X'.",
"- - - - 3 7 d d f s 8 5 5 3 5 5 w t f b g s 3 1 8 j j p a h k h l s s 8 7 s h j ) _ ..' ` ] 9.C.-X;X} g.A.g.).1XgXzXzXhXhXMXzXyX",
"- - - * 7 p d j s 8 8 5 5 : 3 5 e t f b g s 3 * 5 j l s i i h h Z l h s a h j V s k F ) ' X.%.$._._.} E._.0.e.l.4XgXBXVXxXdXeXdX",
"- - = 4 0 6 d d d i 8 9 5 5 3 5 f f b Z l f i 5 7 j V j i i s s Z Z M l j j j N i a k S [ -.n.Z.).P._.;XqX).0.h.Y..XiXlXxXlX#X/.",
"& * * 1 0 7 7 8 i 9 9 8 8 4 5 3 g v b l k s s 5 7 k V k 8 i i i N N N N l j h s h g h f C O.Z.-XE.3.).).;X(.y.Q.k.H.T. XpXBXjX/.",
"$ $ * * * 3 3 3 9 i i 9 8 5 3 3 f f h f s s 8 7 7 j V g i 7 i i h M C N N j i 7 i 8 s e t S t.}.7XM.a.P.qX;XqXeXi.k.H.T. X%XpXMX",
"$ $ % * * 3 3 7 p p 8 7 5 5 3 3 i s h f s s s h k l l l j j j s h k h j h h j p 5 7 7 f k w e S -XR.Z.n.0.f.|.yXlXXXx. X6X%X%XpX",
"$ $ % % * 1 3 7 7 p 8 8 7 7 7 7 s h k h h s h h k l l l l j s s h f h j s d d a V l 8 f | -.R T k S ;.e.0.y.).tXzXlXsX6XoXiXpX2X",
"@ % % * 1 3 1 7 0 p p 7 8 5 5 5 h k M M k h k M k l M l l j s s s s d s p p p p d l d Z | ;.-.O.S A C T +.y.Q.<XhXxXBXpX@XrXrX^.",
"@ % % % * 3 3 3 p 7 p 7 8 7 7 7 k N N N l k M Z k k k l g s s s e s 8 8 i 7 p p 7 i g K | [ X.N.1.X.T } r.r.O.;.W.,XxXBXkXvXpX/.",
"@ @ ; % : 3 0 7 7 7 p 7 7 7 7 i j N F N B M C C h k k k g f d 8 8 5 8 8 9 7 8 7 p d s Z @.2.2.m.H X.$.$.9.} T W =.<.T.+X#XrXpXrX",
"@ @ % ; : 3 3 0 0 7 7 7 7 p 5 i B N N N M B M C h k k k f s s 8 5 5 4 5 3 0 3 3 8 j h h  .8.2.%.G ` ` T T } V.7XzXgX#X~.XX%X%X|.",
"@ @ ; ; : 3 0 3 7 7 7 i i i i i a N N N M k M C f h k h j s e 8 3 5 3 3 1 3 3 7 3 j g s D o.X.] G / %.$.9.n._.7X>XyX5X2XdXpX@X^.",
"; ; ; ; : > 4 0 1 0 7 7 7 7 9 s B j B N B h k M f f k f d s 8 8 : : : : : 3 3 1 7 s h s H [ ' [ D ` C.*XF.B.n.:.9XlXxXsX%Xz.w./.",
"$ $ % * * * : : 5 3 3 : 3 5 5 8 8 s s l b f v f f s s e 8 e 8 9 : : 3 * 4 3 1 3 9 9 i j J I Z b t ;.V._.F.g.0.h.jXBXnXmXiXoX$XiX",
"% $ * * * * > : 6 5 3 5 3 5 e t e s e b K K K v e e e e s 8 7 7 3 : * 3 1 4 3 2 7 3 8 d c m b f f Y 0.A.B.9.0./.pXvXmXmXmXaXoXT.",
"% % % % * > ; : 6 6 5 5 5 8 e r e s 8 v R P R k 8 s e s s 7 7 3 : * 3 * 3 1 3 1 1 : 3 8 r f f s K b g.(.S.B.A.qXpXxXVXmXaX2X`.f.",
"% $ $ % * * * : 5 6 6 5 8 6 w e 5 t e k S Z Z f f s s s s s i 7 3 : : 3 = 4 4 3 - * 3 3 8 e s e E b P._.B.F.:XjXCXVXnXbXxXNXqXs.",
"$ $ % % % * : : > 3 3 5 5 5 5 5 8 g k Z Z f k h C v l h s h j d 3 3 3 > 3 > 3 3 * * 3 7 5 8 s d g J =X=Xn.D.S.).|.@XrXrXuXqX;Xg.",
"+ $ % $ * % * * * : : 5 5 5 5 5 s F P ) C s v v Z b C l l l l c 3 * > 3 4 0 0 3 3 3 7 5 8 t k b 7 V E.E.n.n.r.O.W q.Q.^.u.0.g.B.",
"@ $ & $ % * ; : : : 5 5 6 5 5 5 s N J P Z k C C h C Z Z Z N j i 3 : 3 1 4 0 3 3 6 p d d s f b I d s Z X.@.n.(.U.h.q.z.@XQ.h.F.F.",
"$ + $ $ % * % ; > 5 6 y r y w 5 7 k h Z Z k Z k e h Z _ P N s 7 3 : > 3 3 3 3 0 9 z x g f g K E k 5 8 R 2.n.s.>.^ ~ z.rX^.h.(.|.",
"o + + $ % ; > > : , 8 r y 5 y x s h s s 7 s k S Z k l S J l s 8 3 : 3 6 q 6 7 6 z c c g g b f 8 w w v n | A.I.^.rXrXvXpX X/.Y.Y.",
". + + $ * ; > > < : 6 y 6 5 5 r x j j s s h N J v h h Z F g i 8 3 : 0 9 r 0 0 8 3 3 5 g g s d v t , t Y :.M.J.+XkXvXcXvXvXcXsXiX",
". . $ + @ & & > 6 < 6 y 5 : 5 e c d i 8 d d l b g s s m J f i 8 9 5 6 r 9 6 0 6 9 3 3 g ~ *.E R Y y.s.Y ;.{.Y.w.%XpXvXvXiXfXiXiX",
"$ + $ $ @ & * ; 6 < 6 y 6 ; ; 5 z 9 7 3 8 f e e g e t l c d e 9 r 9 9 9 r 3 3 8 3 3 3 i I 6.>.R Y 0.y.s.>X<XW.K.%XjXvX%X Xv.v.H.",
"+ + + + & & & % 6 , 5 6 5 ; ; 6 d 9 3 3 8 e 8 5 g t e g c g r d u y 6 r 8 : 3 8 % 5 f e f J E E Q n Y 0.&X!.J.4XrXjXpX%X$XoXv.H.",
"+ + $ # @ @ @ @ , ; > 6 : ; ; 5 z q 9 9 r e e 5 d e 8 t g d t r r 5 3 5 5 3 3 9 3 5 8 d g f b R n g.E.0.1.5.d.Y.^.^.^.@X3X5X6X6X",
"@ # + @ $ $ @ $ ; ; ; 5 : ; : 6 q q z 9 6 5 5 6 e , : 5 r 5 8 w 5 : : 3 4 3 3 9 d 3 * 3 t f s f f 2.:X7X=XW.A.h.p.h.Q.|.Y.j.W.9X",
"$ # # @ @ + + @ % % ; , ; ; : 6 > 6 y 6 : ; : 5 5 ; % ; 5 5 : 5 : : % : : * 3 9 x x d 8 d Z Z n }  .3.E.7XgXtX^.p.p.^.OXd.~ 5.&X",
"+ + . + + + + O - O 2 + & = * : > > > : ; : : : ; * : ; : : : : % * : * * * 3 1 9 z 7 3 5 i f K -.:.W E <.8XxXzX3X2X XK.5.W >.R.",
"O O + + O + O - O - # & & & ; & ; > ; > : ; % : % : % : : : : : : * * * 2 * * * 0 p p 3 7 c J K e.P.J.j.z.3XsXfXsXlXdX+X,X{.M.-.",
"+ . . + + . . + O - O - @ ; ; ; > ; ; ; ; ; ; : : * : : : : : : * : * * * : 3 * 3 z c p s J *.R U.}.[.>X+XhXxXxXcXsX6XXX,X>X;X>X",
"O O + . O + + + O - - O % % % ; ; ; > ; * ; * ; % * % : 3 : : : : % : * * 3 : : * 7 J g 3 s K R k | i..X5XzXlXcXxXpX XJ.:.E :.[.",
". o o . . + + . + + + + @ % % % ; & ; * ; % % : : * % : : : : 3 : * : ; : : 3 3 7 d U *.f 8 Z *.W u.j.L.k.x.x.0X6XpX2Xk.~ n w w ",
"o . o o . . . . + + o @ @ @ @ @ ; ; * ; ; ; % % : * : * : : : 3 : : : : : : : 3 i d U *.Z e v | M.I.U.K.k.W.T.x.T.2X5X].J.,.E Y ",
". o     . . . . o o + + @ @ @ ; * % % % % % % * % : * : 3 3 > > : : : : : 3 : 3 : 3 8 l Z s f v s.I.`.'.Y.+Xz.^ T. XXX+X[.p.f.{.",
"  o o . . . . . . . + o o @ @ @ % ; % ; % % % % : : : : : > : 3 : : : : : : 3 3 5 e e v E | S v &.d.j.j.z.,X+X~.z.i.k.].'.,.:.[.",
"            . o + + # & , < < < ; * & & ; * : % > 3 3 > : * * * ; % % : : 5 r r d s e v | -.-.t.J.u.=.q.l.OXdXeX2X~.T./.`..X>X[.",
"        . . . . o + @ @ & , , , % % % % % % % % > > * > > : * * : : : : 4 6 u g c c R *.R v T s.}.:.! l..X~.].^.4X.XOX.XL.d.L.OX",
"    X O O O .   + + + @ # @ # ; @ % $ $ @ $ % % = 4 3 = * * * * % : : : 5 6 r r c s K 5.m.-.1.t.p.=.Q q.k.q.p.L.~.I.!.].l.=.i.<X",
"    O # O O .   O o o o @ @ @ @ @ $ @ $ & + $ $ = * * * * * * * $ % $ % * : 5 6 * 5 K >.-.a.Z.M.u.q.~ q.Q.L.K.L.K.K.Y..XOXL.].hX",
"  X O # # O X   X X X @ o @ @ o @ & $ + % $ $ % * * * * * * $ * $ $ $ * * : : : 8 x J k f R a.t.Q q.k.{.|.p.j.`.J.I.Q.L.l.u.w.!.",
"X O O O O O     o X X o o @ @ @ % $ & & % $ $ $ * = * * - * % - $ * * = > 3 3 3 U I I K C S X.-.I.Y.L.OXyX,X{.L.!.|.@XL.p.q.k.Q.",
"O O O O X X     X X X O @ @ @ ; & & & & & ; * = $ * $ $ - % - - $ % * = 4 * * * 7 c >.a.-.v Y a.z.Q.!.!.J.d.!.I.U.Q.`.h.q.z.,XgX",
"O O X X X     X   X X X @ @ # , & = = = & > = = = * $ * $ * $ - . $ - * * % * $ * 7 c *.5.R Z O.J.q.u./.h.^ f.Q.|.`.K.q.W q.|.eX"
};
