/* XPM */
static char *result[] = {
/* columns rows colors chars-per-pixel */
"64 64 148 2 ",
"   c #000104",
".  c #000024",
"X  c #01002A",
"o  c #000235",
"O  c #010242",
"+  c #01274E",
"@  c #01294E",
"#  c #052450",
"$  c #012A52",
"%  c #043354",
"&  c #093856",
"*  c #053559",
"=  c #1B3D59",
"-  c #24445D",
";  c #32455C",
":  c #224362",
">  c #355169",
",  c #3D526B",
"<  c #465464",
"1  c #495563",
"2  c #43556C",
"3  c #4B5869",
"4  c #435970",
"5  c #5B646D",
"6  c #4E6076",
"7  c #546374",
"8  c #5B6474",
"9  c #5F6877",
"0  c #53677A",
"q  c #58677A",
"w  c #5C6C7C",
"e  c #606873",
"r  c #606C7B",
"t  c #6A737E",
"y  c #586A80",
"u  c #647486",
"i  c #6B7684",
"p  c #6E7887",
"a  c #6A7589",
"s  c #677888",
"d  c #6A7A8A",
"f  c #747C84",
"g  c #747E8B",
"h  c #75818F",
"j  c #798089",
"k  c #758493",
"l  c #7F8A95",
"z  c #7F8F9E",
"x  c #858C94",
"c  c #888F97",
"v  c #868E99",
"b  c #898D98",
"n  c #84919E",
"m  c #89939D",
"M  c #8F999F",
"N  c #91979D",
"B  c #939B9F",
"V  c #8390A0",
"C  c #8D97A1",
"Z  c #8C9AA6",
"A  c #8D9FAD",
"S  c #949CA3",
"D  c #989DA3",
"F  c #9496AB",
"G  c #959BAB",
"H  c #9A9EA9",
"J  c #97A0A7",
"K  c #97A4AD",
"L  c #9CA2AB",
"P  c #9CA4B1",
"I  c #9EA9B5",
"U  c #A1A6AC",
"Y  c #A3ABAF",
"T  c #A0A3B2",
"R  c #A1A8B0",
"E  c #AEAFB6",
"W  c #A5AFBB",
"Q  c #A9AFBB",
"!  c #ADB0B5",
"~  c #A7B3B9",
"^  c #ABB3BC",
"/  c #B0B6B5",
"(  c #B3B6BB",
")  c #B6BABD",
"_  c #BABBBF",
"`  c #C0C2BF",
"'  c #AFBBC6",
"]  c #B3B5C1",
"[  c #B4BCC3",
"{  c #BABEC1",
"}  c #B6C3C6",
"|  c #BEC2C5",
" . c #BFC8C7",
".. c #BDC4CA",
"X. c #BEC1D0",
"o. c #C1C3C6",
"O. c #C3C8C4",
"+. c #C3C5C9",
"@. c #C6CACC",
"#. c #C9CBCD",
"$. c #CDD0CE",
"%. c #D1D1CF",
"&. c #C4C7D3",
"*. c #C6CCD3",
"=. c #CBCED2",
"-. c #C6CCD8",
";. c #CBCFD8",
":. c #D0CFD4",
">. c #C7D0D7",
",. c #CDD2D4",
"<. c #C7D4DD",
"1. c #CCD4DA",
"2. c #D2D4D5",
"3. c #D3D5D9",
"4. c #D6D9DC",
"5. c #DADBDD",
"6. c #DFE2DE",
"7. c #D6DBE0",
"8. c #DBDEE1",
"9. c #E0DFE5",
"0. c #DEE1E3",
"q. c #DAE4ED",
"w. c #E2E4E5",
"e. c #E5E8E6",
"r. c #E5E6E9",
"t. c #E5E9EB",
"y. c #ECECED",
"u. c #F1EEED",
"i. c #EEF0ED",
"p. c #F3F2EE",
"a. c #FBF3EF",
"s. c #F9F9EF",
"d. c #E5EDF3",
"f. c #ECEEF1",
"g. c #EBEFF8",
"h. c #F1EFF2",
"j. c #F1EFFD",
"k. c #EEF2F4",
"l. c #EFF5FA",
"z. c #EEF9FD",
"x. c #F5F4F4",
"c. c #F9F6F5",
"v. c #F6F8F6",
"b. c #FAF9F6",
"n. c #F5F6F9",
"m. c #F9F7F9",
"M. c #F6F9FB",
"N. c #FBFBFB",
/* pixels */
"  3.N.x.m.v.v.v.v.x.v.m.c.j.. a . ] b.n.n.v.x.m.m.n.n.b.x.N.< , $ k N.c.n.N.s.n.v.n.N.u.N.N.S O 0 & l.c.n.N.v.x.v.x.n.v.x.N.o.  ",
"| o.M.b.v.x.m.m.n.N.y.N.v.@.X.,.&.( x.m.v.v.M.v.x.b.n.h.N.3...-.<.E y.M.N.y.N.x.v.m.x.v.m.y./ ;.;.' 3.N.x.b.N.m.v.m.v.v.x.x.{ o.",
"N.t.| N.x.x.m.v.N.h.N.m.#.w.N.N.N.v...h.m.m.n.v.N.x.N.N.2.4.b.N.N.N.#.0.m.N.x.b.m.x.N.N.e.o.N.N.N.N.5.,.N.b.x.N.c.x.m.N.k.{ n.N.",
"x.v.k...M.b.x.n.u.N.N.=.w.N.x.m.x.m.n.| h.b.v.b.x.m.N.2.4.M.b.x.x.M.N.@.t.v.N.x.x.N.x.t.o.N.M.x.v.b.M.7.3.b.N.p.m.v.n.h.| x.m.v.",
"v.N.v.y.+.n.N.v.N.n.%.5.N.x.N.m.m.n.b.x.{ x.v.v.m.N.2.2.N.N.x.N.m.b.x.N.o.w.N.v.m.v.t.+.N.v.x.N.m.x.N.b.4.2.N.b.x.b.x.{ x.N.v.v.",
"b.x.x.M.y.{ N.b.x.,.5.N.p.v.x.n.v.m.n.b.n.| f.b.N.3.3.N.x.x.p.N.v.v.b.x.b.=.w.N.b.r.+.N.m.h.v.v.b.n.c.u.N.3.3.N.N.k.| n.M.v.x.m.",
"v.m.v.x.N.f.o.n.,.4.N.h.N.n.m.M.x.N.v.x.m.n.o.k.8.:.N.x.N.x.N.x.v.n.M.n.N.b.@.w.f.+.b.p.x.N.x.m.n.M.v.v.x.N.3.4.n.| h.N.x.x.x.v.",
"m.x.m.v.v.m.f.B w.N.x.b.x.b.x.N.x.v.v.m.n.b.v.T =.N.v.v.v.n.v.m.N.c.v.x.m.v.N.] ( N.m.c.v.x.b.v.m.x.m.v.x.p.N.,.L n.N.x.m.v.n.c.",
"x.n.N.x.N.v.,.3.*.c.v.m.x.m.n.x.b.m.N.v.M.N.3.3.=.y.m.v.m.v.x.m.b.n.b.x.v.N.w.,.3.5.N.v.v.N.n.m.v.v.m.v.x.m.y.=.1.4.b.N.n.b.x.n.",
"m.N.y.N.b.=.5.N.y...N.m.n.n.n.N.x.m.p.b.m.4.%.N.k...x.M.x.v.v.v.x.N.y.N.m.w.#.m.n.#.w.b.b.u.b.x.N.x.h.v.N.x.` x.N.2.3.c.v.l.N.v.",
"b.p.b.v.*.4.N.i.b.y.{ n.b.c.m.c.v.v.b.N.3.3.N.x.N.n.] x.m.v.x.v.N.y.N.m.y.+.M.b.m.N.+.f.x.N.x.N.v.c.N.m.g.{ n.v.x.N.3.3.N.c.x.x.",
"l.N.v.=.w.N.y.m.v.b.h...N.v.k.N.N.m.N.3.7.N.x.v.c.m.M.o.h.n.b.b.x.N.N.w.+.N.x.x.v.m.m.+.w.n.v.x.v.m.N.f.o.M.m.v.v.h.N.4.3.N.x.M.",
"c.b.*.0.b.h.N.s.v.M.c.i.} v.N.b.x.N.,.3.v.h.N.x.m.h.N.x...i.N.v.v.N.r.#.N.x.v.m.m.x.h.N.#.e.v.b.c.m.x.| k.M.h.M.v.N.c.b.3.;.N.c.",
"l.O.r.N.v.N.n.v.v.x.b.N.e.#.d.b.M.;.5.M.N.v.N.N.v.v.x.v.M.| k.l.x.w.| N.x.N.m.x.x.v.N.v.M.+.t.l.c.d.+.x.N.b.N.M.b.x.x.N.m.5.2.M.",
"+ 1.N.v.N.u.m.n.n.v.x.n.N.q.= l ; ] m.m.v.x.m.x.v.N.c.h.N.x.5 i 9 j N.b.v.x.v.v.m.m.n.x.N.N.c 8 g 1 d.N.m.p.x.c.n.N.v.k.M.N.' $ ",
"y 4.N.v.N.n.b.c.m.m.N.b.N.y.u G u +.N.c.v.m.M.M.b.n.m.m.x.N.n v k J N.c.N.M.M.v.n.N.n.M.c.N.^ d C g N.x.m.N.N.n.v.n.b.N.b.N.=.q ",
"O 3.N.h.N.x.c.v.x.N.v.M.b.g.% k $ ' N.b.n.m.v.v.v.x.m.c.b.N.t q , m N.v.x.b.c.v.m.x.m.n.v.N.K : d 3 M.v.N.x.v.n.n.b.v.m.x.N.&.o ",
"G #.v.N.p.b.m.x.n.n.c.h.N.2.A { R E N.n.v.b.n.N.x.N.h.N.M.w.D ] ^ D f.v.N.x.m.x.v.m.n.m.c.x.L ] { F 8.N.n.b.m.n.v.n.v.N.x.v.{ T ",
"N.8.3.x.N.m.n.c.n.M.c.N.,.3.N.N.N.f.o.n.a.v.N.h.N.y.b.n.t.@.N.N.N.N.+.h.b.n.n.v.x.m.x.m.y.+.n.b.N.N.=.8.N.b.u.m.v.m.h.c.N.o.f.b.",
"x.N.3.3.n.x.c.m.N.b.N.=.4.N.x.m.N.m.f.| v.v.x.N.v.N.M.e.@.v.b.N.b.x.n.| d.b.v.n.n.N.m.x.o.n.x.n.v.b.x.2.9.N.N.x.m.x.b.v.o.f.x.N.",
"b.y.N.5.=.N.m.x.n.N.,.8.N.x.c.m.h.N.v.y.+.n.v.n.v.v.t.| N.v.x.v.n.v.m.N.| x.b.n.x.M.y.| x.m.c.n.b.y.N.x.2.3.N.c.x.v.b.o.f.m.M.x.",
"N.N.x.N.w.#.N.v.N.#.4.N.x.N.u.N.N.x.v.m.f.o.n.c.N.w.@.N.x.m.x.N.n.N.x.M.x.| g.b.N.x...x.c.v.m.b.b.N.u.N.m.=.8.N.m.n...f.m.b.x.b.",
"x.v.m.n.N.5.=.N.2.3.N.x.N.y.N.n.x.m.n.v.x.f.{ N.0.@.N.n.v.m.m.v.v.v.M.x.N.n.{ h.h.{ M.b.v.N.x.c.v.v.N.u.N.m.=.w.N.| f.N.x.v.n.v.",
"b.x.b.v.b.N.t.R 7.N.a.v.v.c.m.v.v.v.v.x.n.m.x.! =.M.n.x.b.n.n.m.v.x.b.x.n.m.N.{ [ b.v.n.m.h.v.x.b.c.v.v.v.v.b.=.Q k.m.c.v.v.n.v.",
"b.x.b.x.m.N.8.| 3.b.n.x.v.n.b.b.N.x.N.x.x.N.w...#.m.N.x.N.v.p.b.v.v.x.b.v.m.f.@.+.k.M.v.v.b.v.v.v.x.M.b.v.m.n.#.| e.b.v.m.c.x.b.",
"x.N.x.b.m.3.2.N.7.#.N.b.x.m.v.v.u.N.x.N.v.8.#.N.y.o.v.m.x.v.b.n.c.N.x.x.N.h.o.x.v.| f.b.x.x.N.c.b.m.N.f.m.N.{ f.N.o.0.N.x.x.b.v.",
"M.v.c.N.4.3.N.x.N.w.+.N.x.N.v.M.N.x.v.v.y.@.m.v.N.f.{ n.m.n.n.M.m.h.b.N.h.{ N.b.v.b._ g.N.n.v.m.m.x.v.b.N.{ n.n.v.N.#.4.N.v.M.v.",
"v.x.N.3.3.b.x.b.n.N.t.+.v.x.x.b.h.N.b.e.o.N.v.x.x.m.x.{ x.m.x.b.b.m.m.f.{ m.m.x.x.b.m.o.y.n.n.v.N.v.v.x.o.f.N.x.v.x.N.3.5.N.y.b.",
"x.N.,.3.N.b.m.x.x.b.x.w.#.N.N.x.m.x.w.@.N.x.m.m.v.v.N.y.+.m.N.x.x.N.f.+.n.b.h.N.N.x.v.b.| k.x.v.x.n.M.o.f.N.x.b.x.N.x.M.3.4.N.p.",
"N.,.8.v.b.b.x.N.N.h.N.n.w.@.N.N.M.y.+.N.b.x.v.n.v.x.m.m.h.{ N.N.N.l.{ N.m.v.N.x.n.m.h.N.x.o.k.N.N.n.| y.N.N.x.x.v.x.x.N.x.=.4.N.",
"w =.b.v.x.v.N.x.x.N.u.N.n.8.t H g L N.b.b.n.b.v.m.v.x.v.m.k.f C c x b.b.m.v.n.m.c.n.n.n.v.N.B l B i k.M.b.h.b.x.v.x.b.v.N.N.{ w ",
"4 8.N.n.N.x.b.m.N.n.b.n.N.k.7 Z 6 X.N.N.v.b.n.m.m.b.x.m.b.M.v k d D N.x.M.n.b.b.v.v.N.M.b.b.^ w n p M.c.v.n.b.m.v.N.v.M.b.N.*., ",
"2 8.N.n.N.c.m.v.m.m.N.n.N.g.7 Z 7 ..N.v.x.m.x.N.v.m.v.b.v.n.v k i H N.x.N.M.b.v.v.v.N.n.v.b.^ w z g l.b.c.v.v.b.v.b.v.M.x.N.,.> ",
"w =.N.b.x.v.N.v.x.N.y.N.v.4.i K g R N.v.v.M.N.v.m.m.x.m.M.k.f S b x M.M.b.x.v.M.b.v.n.v.m.N.M l S t k.b.x.v.x.v.x.m.m.x.N.N.{ r ",
"N.#.5.N.v.v.x.N.N.h.N.m.r.@.N.b.N.t...N.b.h.v.m.v.n.m.m.k.{ n.N.N.l.| b.v.v.N.x.x.m.x.n.x.o.f.N.N.M.| f.m.N.x.n.b.m.h.N.x.,.3.N.",
"b.N.:.3.N.v.b.x.x.N.x.r.#.N.N.v.v.b.t.+.N.b.N.x.v.v.N.f.+.M.N.x.x.b.y.+.x.N.x.M.M.x.m.N...x.x.v.x.N.v.@.y.v.x.m.c.v.x.n.2.5.N.y.",
"m.x.N.3.3.N.x.N.n.N.r.+.v.x.x.b.x.b.v.t.+.N.x.n.v.v.n.{ h.b.v.m.b.m.c.y.{ N.m.v.x.b.b.o.t.m.v.v.b.n.v.v.| f.m.v.m.x.N.2.3.N.p.b.",
"b.v.M.N.3.3.N.i.N.w.+.N.v.N.x.n.m.n.n.x.e.#.N.c.m.h.{ n.N.v.x.M.N.h.m.N.h.{ b.m.b.m.{ f.N.x.x.v.m.n.v.N.M.{ f.v.x.N.=.4.N.v.n.b.",
"x.b.x.v.n.3.2.N.8.#.N.m.x.v.x.N.v.N.f.N.v.8.=.N.y.o.n.n.x.v.b.m.c.N.x.x.N.l.| x.v.| x.N.x.x.N.m.M.b.v.x.N.n.o.f.N.@.9.N.x.m.M.v.",
"m.x.v.v.N.M.5.| 3.M.m.c.b.M.c.b.m.p.N.x.v.N.w.o.#.v.N.x.b.n.v.v.m.c.x.b.x.b.y.&...f.m.x.v.N.x.v.b.x.m.b.x.N.x.=.o.w.v.n.v.v.v.b.",
"N.x.b.n.v.N.r.R 5.N.a.v.v.c.n.v.m.b.v.v.n.m.x.! ,.M.v.x.b.v.n.v.n.v.b.v.v.v.N.{ [ m.v.m.m.x.b.N.v.v.n.x.v.v.b.:.Q k.m.v.v.v.v.c.",
"x.b.n.c.N.4.2.N.2.1.N.x.N.p.N.v.x.m.m.v.v.y.o.N.0.#.N.b.v.x.n.N.b.x.c.x.N.m.{ x.h.{ N.m.n.b.k.x.m.h.N.x.N.N.#.r.N.` f.n.c.c.m.c.",
"b.n.x.N.5.;.N.b.N.,.8.N.x.N.p.N.N.x.v.m.y.| M.n.N.0.+.N.x.N.x.m.v.v.h.m.x.| f.N.b.g...x.x.m.v.x.n.N.u.N.v.=.5.N.M.v.| f.N.N.h.N.",
"x.n.N.6.,.l.N.x.n.N.@.4.N.x.M.x.x.m.c.y.@.n.n.m.x.n.f.+.m.n.x.M.n.v.N.N.o.u.v.m.v.N.y...v.m.N.n.M.x.N.x.3.3.N.x.x.v.N.o.y.b.m.h.",
"v.N.4.2.n.N.x.N.M.m.N.2.3.N.x.N.b.b.f...v.v.x.N.v.b.v.w.,.N.b.v.b.x.x.| y.N.p.v.n.m.c.f.{ x.x.n.c.x.v.,.4.N.N.x.m.v.b.v.| f.n.m.",
"N.9.=.v.N.v.N.x.m.n.u.N.1.3.N.N.N.f.o.M.c.v.N.a.N.y.N.b.r.| N.N.N.N.+.f.N.v.v.v.v.N.n.b.f.@.N.N.N.N.2.5.N.v.p.N.v.N.h.c.N...g.N.",
"G +.N.N.u.m.n.v.c.n.b.x.N.2.Z { I ! m.m.v.n.n.m.n.N.i.b.x.t.B ) ^ H y.v.N.x.M.x.c.b.x.M.x.h.U ! { G 4.b.v.x.N.x.v.n.n.N.v.b._ H ",
"O 3.N.h.N.v.b.x.v.v.v.n.c.n.% k # [ N.m.x.c.x.v.m.x.b.v.M.N.t q 2 n N.b.i.N.n.v.m.x.b.x.m.N.P - s 1 N.N.m.v.n.v.x.v.n.m.x.N.&.o ",
"w 7.N.m.v.b.v.v.b.n.m.N.b.h.i H u { N.x.v.N.x.M.N.x.N.m.x.M.c c k K N.p.N.M.v.x.b.v.M.v.c.N.^ a C g b.v.M.m.N.v.c.m.v.b.x.N.2.7 ",
"$ <.N.x.N.x.m.n.v.c.x.M.N.q.= l ; W N.M.n.m.m.v.x.c.v.x.N.l.8 p e j N.n.m.x.b.n.b.v.v.x.b.N.c 7 h 2 g.N.v.x.v.x.n.N.x.x.m.N.[ $ ",
"n.#.r.N.x.N.v.s.m.k.b.b.e.#.d.n.M.,.5.n.b.v.v.b.n.v.c.m.n.| f.k.n.w.| N.n.b.n.v.n.v.N.b.v.+.t.k.x.d.o.x.n.b.N.n.v.v.n.N.b.2.2.l.",
"c.M.*.w.b.p.n.v.x.M.b.p.{ x.N.M.v.N.2.3.m.x.m.v.n.x.b.g.+.y.N.b.M.N.r.#.b.v.x.b.m.x.x.N.@.e.b.N.v.m.x.o.x.v.x.v.x.b.x.c.4.<.N.a.",
"x.N.v.#.w.N.y.N.m.c.y.} N.b.x.m.m.x.N.3.5.N.x.b.c.m.M.o.g.m.m.m.p.N.b.w.| N.n.x.x.b.N.@.w.b.N.n.v.v.m.k.+.n.m.c.N.v.N.4.3.N.v.n.",
"N.p.N.b.#.8.N.p.m.y.+.m.b.x.b.b.c.v.m.N.3.1.N.n.m.x.{ k.m.v.x.x.N.i.N.n.y.+.b.m.m.N.o.f.n.N.y.N.v.m.b.m.k.{ n.x.x.N.,.,.N.b.x.m.",
"x.N.f.N.x.$.5.N.y...n.b.n.M.v.m.n.m.h.N.b.4.2.N.x.+.v.m.v.v.m.m.x.N.y.N.b.w.#.v.v.#.9.m.b.y.N.x.N.h.x.v.b.x.{ x.N.3.4.c.b.n.M.v.",
"v.x.b.k.M.N.,.1.*.v.m.b.x.v.n.c.n.n.N.x.v.b.3.3.*.f.m.x.v.c.x.N.m.x.N.v.v.N.w.=.3.8.N.x.x.N.x.m.v.c.m.M.x.N.f.=.2.3.M.N.v.b.x.b.",
"N.h.N.v.x.N.t.S 9.N.x.b.x.b.n.b.n.b.n.b.x.b.v.L =.N.x.v.m.v.v.v.v.b.b.m.m.v.v._ ( N.x.m.b.n.m.x.b.n.c.x.N.p.N.=.L v.b.x.m.n.v.m.",
"x.N.x.x.N.y.+.M.2.4.N.k.N.n.N.M.x.N.v.x.N.n.o.l.0.#.N.x.m.N.n.n.m.h.N.x.N.x.=.w.t.+.N.m.p.N.n.N.x.m.v.N.x.N.3.5.x.o.n.m.x.v.m.v.",
"N.x.x.N.y.{ N.v.x.,.8.N.h.c.n.m.b.m.c.v.n.{ g.b.m.4.#.N.n.h.v.b.x.N.u.m.x.,.8.N.N.e.o.N.x.n.m.x.N.p.v.x.N.3.3.b.N.f.o.M.b.v.x.m.",
"x.v.n.f.o.N.m.x.N.v.,.5.N.x.N.v.n.x.m.n.{ x.m.m.N.N.3.3.b.N.x.N.v.x.b.v.=.0.N.b.n.m.y.&.N.v.x.m.M.x.N.b.4.3.b.N.v.v.h.{ n.N.v.b.",
"x.N.f.o.n.v.x.m.h.b.c.#.w.b.x.x.x.b.M.{ h.v.v.x.v.n.N.3.4.M.M.m.h.N.x.3.7.N.N.x.x.N.n.t.+.N.v.v.x.N.M.4.3.m.b.x.v.n.m.x.{ n.N.x.",
"N.y.| N.x.v.N.x.b.x.N.v.*.w.N.N.N.v...x.N.v.m.v.b.n.v.N.3.1.N.N.N.n.,.7.N.m.v.b.v.x.x.b.y.+.N.b.N.N.5.<.N.b.h.N.v.v.v.b.k.{ n.N.",
"o.o.M.n.n.b.x.b.x.N.y.N.N.+.+.;.&.( x.m.v.x.m.v.v.v.N.u.N.5.{ ,.;.( r.N.m.x.b.x.v.N.x.b.x.t./ ;.,.[ 2.N.x.b.n.x.m.v.x.v.M.n.{ o.",
"  4.N.x.m.n.M.b.b.x.M.n.c.n.X u . ] m.c.v.x.v.n.x.m.x.b.k.N.< , $ k b.v.n.b.v.M.N.x.b.x.N.N.F O 0 * n.a.n.c.v.v.v.n.v.c.x.N.o.  "
};
