/* XPM */
static char *result[] = {
/* columns rows colors chars-per-pixel */
"64 64 163 2 ",
"   c #010000",
".  c #332B29",
"X  c #3D3837",
"o  c #3E3B3C",
"O  c #3A3636",
"+  c #3E413F",
"@  c #3D3E44",
"#  c #444345",
"$  c #46474A",
"%  c #47484C",
"&  c #4B4B4C",
"*  c #4D4C45",
"=  c #524D4C",
"-  c #565442",
";  c #5A5645",
":  c #5D5947",
">  c #4D4E51",
",  c #4D4459",
"<  c #514E59",
"1  c #535355",
"2  c #575857",
"3  c #575759",
"4  c #58545E",
"5  c #57595F",
"6  c #5B5B5C",
"7  c #615D4B",
"8  c #605A5A",
"9  c #5C6058",
"0  c #5D6F59",
"q  c #6F6A56",
"w  c #65615E",
"e  c #68635F",
"r  c #696551",
"t  c #716954",
"y  c #76715B",
"u  c #7B755F",
"i  c #717C5E",
"p  c #554B63",
"a  c #5D5666",
"s  c #5E5C64",
"d  c #5F5868",
"f  c #605D65",
"g  c #5E6065",
"h  c #646465",
"j  c #6D6660",
"k  c #676965",
"l  c #6D6B63",
"z  c #676768",
"x  c #636869",
"c  c #6A6A6B",
"v  c #746C63",
"b  c #6C7264",
"n  c #7D7562",
"m  c #727B63",
"M  c #70706C",
"N  c #7C786E",
"B  c #6F6F70",
"V  c #747475",
"C  c #787675",
"Z  c #7B7A7A",
"A  c #984C4B",
"S  c #887750",
"D  c #837764",
"F  c #827A63",
"G  c #8C7E68",
"H  c #559334",
"J  c #639B31",
"K  c #6FAB26",
"L  c #79AF24",
"P  c #77AA2F",
"I  c #79AA2E",
"U  c #76B023",
"Y  c #6DAA36",
"T  c #79AA31",
"R  c #71AC35",
"E  c #7CB636",
"W  c #76865D",
"Q  c #788663",
"!  c #7B8A62",
"~  c #7F9161",
"^  c #F3D924",
"/  c #FEE426",
"(  c #FFF128",
")  c #91825E",
"_  c #8DA75F",
"`  c #8FA95F",
"'  c #92AD5E",
"]  c #95B25E",
"[  c #99B65D",
"{  c #9AB85D",
"}  c #99B955",
"|  c #8A8269",
" . c #918064",
".. c #9F8964",
"X. c #93846A",
"o. c #988A68",
"O. c #829561",
"+. c #978F75",
"@. c #9B9479",
"#. c #A18D6B",
"$. c #A4906B",
"%. c #A89775",
"&. c #AD9A75",
"*. c #AC9F7C",
"=. c #B09F7C",
"-. c #B49D75",
";. c #8DA560",
":. c #96A56C",
">. c #A3B66F",
",. c #AFA17E",
"<. c #A2AB7B",
"1. c #B4A17D",
"2. c #97C342",
"3. c #99C444",
"4. c #9CC649",
"5. c #9EC84B",
"6. c #9FC15A",
"7. c #A1CA4F",
"8. c #A5CC54",
"9. c #A8CF57",
"0. c #A2C45B",
"q. c #A7CD59",
"w. c #A9CF59",
"e. c #ACD457",
"r. c #AFD857",
"t. c #ABD159",
"y. c #838282",
"u. c #878788",
"i. c #9D9784",
"p. c #979798",
"a. c #9A9A9B",
"s. c #A59D86",
"d. c #A89D88",
"f. c #B19B81",
"g. c #A09E9E",
"h. c #A49190",
"j. c #ABA286",
"k. c #ABA288",
"l. c #B1A483",
"z. c #B5AA8B",
"x. c #BBAD8B",
"c. c #B5AA86",
"v. c #BDB18F",
"b. c #BAAF91",
"n. c #BEB292",
"m. c #AEADAE",
"M. c #B3B3B3",
"N. c #BBB7B7",
"B. c #B9B8B8",
"V. c #C2B492",
"C. c #C6BB9A",
"Z. c #CDC3A2",
"A. c #BFC1C1",
"S. c #C5C5C5",
"D. c #CFCFCF",
"F. c #CFCFD0",
"G. c #D4D4D4",
"H. c #D9D9D9",
"J. c #E3E2E3",
"K. c #ECECEC",
"L. c #F2F3F3",
"P. c #FEFEFE",
"I. c None",
/* pixels */
"I.I.I.I.I.I.I.I.I.I.I.I.I.I.I.I.I.I.I.I.I.I.I.I.I.I.I.I.I.I.I.I.I.I.I.I.I.I.P I.I.I.I.I.I.I.I.I.I.I.I.I.I.I.I.I.I.I.I.I.I.I.I.I.",
"I.I.I.I.I.I.I.I.I.I.I.I.I.I.I.I.I.I.I.I.I.I.I.I.I.I.I.I.I.I.I.I.I.I.I.I.I R E I.I.I.I.I.I.I.I.I.I.I.I.I.I.I.I.I.I.I.I.I.I.I.I.I.",
"I.I.I.I.I.I.I.I.I.I.I.I.I.I.I.I.I.I.I.I.I.I.I.I.I.I.I.I.I.z.s.I.I.I.I.T Y J P I.I.I.I.I.I.I.I.I.I.I.I.I.I.I.I.I.I.I.I.I.I.I.I.I.",
"I.I.I.I.I.I.I.I.I.I.I.I.I.I.I.I.I.I.I.I.I.I.I.I.I.I.I.,.C.c.l.V.n.f.>.K H E T I.I.I.I.I.I.I.I.I.I.I.I.I.I.I.I.I.I.I.I.I.I.I.I.I.",
"I.I.I.I.I.I.I.I.I.I.I.I.I.I.I.I.I.I.I.I.I.I.I.I.I.,.&.n.l.S o.) n.1.&.:.U L I.I.I.I.I.I.I.I.I.I.I.I.I.I.I.I.I.I.I.I.I.I.I.I.I.I.",
"I.I.I.I.I.I.I.I.I.I.I.I.I.I.I.I.I.I.I.I.I.I.I.c x.V.C.Z.C.j.,.c.Z.Z.x.V.<.0 I.I.I.I.I.I.I.I.I.I.I.I.I.I.I.I.I.I.I.I.I.I.I.I.I.I.",
"I.I.I.I.I.I.I.I.I.I.I.I.I.I.I.I.I.I.I.I.I.M s C n.j.+.F F y t u n | @.k.d.< c I.I.I.I.I.I.I.I.I.I.I.I.I.I.I.I.I.I.I.I.I.I.I.I.I.",
"I.I.I.I.I.I.I.I.I.I.I.I.I.I.I.I.I.I.I.I.I.s @ * ; ; : q y u u u y r : - - + % 5 I.I.I.I.I.I.I.I.I.I.I.I.I.I.I.I.I.I.I.I.I.I.I.I.",
"I.I.I.I.I.I.I.I.I.I.I.I.I.I.I.I.I.I.I.I.I.s.k.z.x.x.x.x.x.c.c.x.x.x.b.x.z.z.d.i.I.I.I.I.I.I.I.I.I.I.I.I.I.I.I.I.I.I.I.I.I.I.I.I.",
"I.I.I.I.I.I.I.I.I.I.I.I.I.I.I.I.I.I.I.n.x.1.%.o.G n v j h w w w h q n D X.#.&.l.x.I.I.I.I.I.I.I.I.I.I.I.I.I.I.I.I.I.I.I.I.I.I.I.",
"I.I.I.I.I.I.I.I.I.I.I.I.I.I.I.I.I.I.I.1.#...D s s % 1 f h h h h h g > > g h G ..-.%.I.I.I.I.I.I.I.I.I.I.I.I.I.I.I.I.I.I.I.I.I.I.",
"I.I.I.I.I.I.I.I.I.I.I.I.^ ^ I.I.I.I.I.I.$.X.h h h g 1 h c z z c c 8 1 f z s v #.#.I.I.I.I.I.I.I.I.I.I.I.I.I.I.I.I.I.I.I.I.I.I.I.",
"I.I.I.I.I.I.I.I.I.I.I.I./ / ^ I.I.I.I.I.I.h z z 6 X C h % # 1 o & B l O h z c I.I.I.I.I.I.I.I.I.I.I.I.I.I.I.I.I.I.I.I.I.I.I.I.I.",
"I.I.I.I.I.I.I.I.I.I.I.I.^ / I.I.I.I.I.I.I.h h z = . | # m.J.K.J.p.1 Z   h h c h I.I.I.I.I.I.I.I.I.I.I.I.I.I.I.I.I.I.I.I.I.I.I.I.",
"I.I.I.I.I.I.I.I.I.I.I.I.^ ^ I.I.I.I.I.I.I.c h h h &   A.P.G.N.H.P.a.  6 h h z h I.I.I.I.I.I.I.I.I.I.I.I.I.I.I.I.I.I.I.I.I.I.I.I.",
"I.I.I.I.I.I.I.I.I.I.I.I.I.I.I.I.I.h z h h h h h z h B P.S.= X   K.J.1 z h h h h I.I.I.I.I.I.I.I.I.I.I.I.I.I.I.I.I.I.I.I.I.I.I.I.",
"I.I.I.I.I.I.I.I.I.^ I.I.I.I.I.I.I.c h c h 3 k h z 2 y.P.L.u.6 g.P.K.h h z h z h I.I.I.I.I.I.I.I.I.I.I.I.I.I.I.I.I.I.I.I.I.I.I.I.",
"I.I.I.I.I.I.I.I.^ ( I.I.I.I.I.I.I.h h h f > h h h w z J.L.D.S.G.P.D.& z h z c h I.I.I.I.I.I.I.I.I.I.I.I.I.I.I.I.I.I.I.I.I.I.I.I.",
"I.I.I.I.I.I.I.I.I.^ I.I.I.I.I.I.I.I.6 3 3 1 1 h h c $ m.L.h.A N.K.y.3 z h c h I.I.I.I.I.I.I.I.I.I.I.I.I.I.I.I.I.I.I.I.I.I.I.I.I.",
"I.I.I.I.I.I.I.I.I.I.I.I.I.I.I.I.I.h z h z z 6 & h h h 6 M.J.J.J.a.2 z h h h I.I.I.I.I.I.I.I.I.I.I.I.I.I.I.I.I.I.I.I.I.I.I.I.I.I.",
"I.I.I.I.I.I.I.I.I.I.I.I.I.I.I.I.z c h h h h z 6 1 h h z $ 1 z % 1 z h h c h I.I.I.I.I.I.I.I.I.I.I.I.I.I.I.I.I.I.I.I.I.I.I.I.I.I.",
"I.I.I.I.I.I.I.I.I.I.I.I.I.I.I.I.h h h h h h h z 1 g z z c h h z c c k s 6 6 6 z I.I.I.I.I.I.I.I.I.I.I.I.I.I.I.I.I.I.I.I.I.I.I.I.",
"I.I.I.I.I.I.I.I.I.I.I.I.I.I.I.I.h z h h h h h h 2 6 & > g z z z 6 $ & Z y.h 1 c h I.I.I.I.I.I.I.I.I.I.I.I.I.I.I.I.I.I.I.I.I.I.I.",
"I.I.I.I.I.I.I.I.I.I.I.I.I.I.I.I.h z h h h h h z # S.J.a.M 1 & 6 Z B.J.F.a.c 6 3 z z I.I.I.I.I.I.I.I.I.I.I.I.I.I.I.I.I.I.I.I.I.I.",
"I.I.I.I.I.I.I.I.I.I.I.I.I.I.I.I.h c k h h h h z 1 V L.P.L.H.H.J.L.P.D.2 2 h h 1 h h z I.I.I.I.I.I.I.I.I.I.I.I.I.I.I.I.I.I.I.I.I.",
"I.I.I.I.I.I.I.I.I.I.I.I.I.I.I.I.I.h c h h h h h 3 % c L.P.P.P.P.P.F.o h c h h 3 6 z z h I.I.I.I.I.I.I.I.I.I.I.I.I.I.I.I.I.I.I.I.",
"I.I.I.I.I.I.I.I.I.I.I.I.I.I.I.I.I.I.h c k z h 2 3 c 1 Z J.P.P.P.S.1 z z h h h s 2 z h c h I.I.I.I.I.I.I.I.I.I.I.I.I.I.I.I.I.I.I.",
"I.I.I.I.I.I.I.I.I.I.I.I.I.I.I.I.I.I.I.I.3 3 1 3 z h z 6 3 a.M.u.> h z h h h h h 1 h h h h I.I.I.I.I.I.I.I.I.I.I.I.I.I.I.I.I.I.I.",
"I.I.I.I.I.I.I.I.I.I.I.I.I.I.I.I.I.I.I.I.h f h h h h h z h 1 & 3 z h h h h h h h 1 1 h h z I.I.I.I.I.I.I.I.I.I.I.I.I.I.I.I.I.I.I.",
"I.I.I.I.I.I.I.I.I.I.I.I.I.I.I.I.I.I.I.I.c h h h h h h h h z z z h h h h h h h h 3 1 h h c I.I.I.I.I.I.I.I.I.I.I.I.I.I.I.I.I.I.I.",
"I.I.I.I.I.I.I.I.I.I.I.I.I.I.I.I.I.I.I.z c h h h h h h h h h h h h h h h h h h k 6 6 z h c I.I.I.I.I.I.I.I.I.I.I.I.I.I.I.I.I.I.I.",
"I.I.I.I.I.I.I.I.I.I.I.I.I.I.I.I.I.I.I.h c h h h h h h h h h h h h h h h h h h h 6 3 z h z I.I.I.I.I.I.I.I.I.I.I.I.I.I.I.I.I.I.I.",
"I.I.I.I.I.I.I.I.I.I.I.I.I.I.I.I.I.I.I.h z h h h h h h h h h h h h h h h h h h h 9 3 h z z I.I.I.I.I.I.I.I.I.I.I.I.I.I.I.I.I.I.I.",
"I.I.I.I.I.I.I.I.I.I.I.I.I.I.I.I.I.I.I.h z h h h h h h h h h h h h h h h h h h z s 1 h z I.I.I.I.I.I.I.I.I.I.I.I.I.I.I.I.I.I.I.I.",
"I.I.I.I.I.I.I.I.I.I.I.I.I.I.I.I.I.I.I.h h h h h h h h h h h h h h h h h h h h h h 1 z h I.I.I.I.I.I.I.I.I.I.I.I.I.I.I.I.I.I.I.I.",
"I.I.I.I.I.I.I.I.I.I.I.I.I.I.I.I.I.I.I.h k h h h h h h h h h h h h h h h h h h h h 2 h h I.I.I.I.I.I.I.I.I.I.I.I.I.I.I.I.I.I.I.I.",
"I.I.I.I.I.I.I.I.I.I.I.I.I.I.I.I.I.I.I.h z h h h h h h h h h h h h h h h h h h h h 1 h V h I.I.I.I.I.I.I.I.I.I.I.I.I.I.I.I.I.I.I.",
"I.I.I.I.I.I.I.I.I.I.I.I.I.I.I.I.I.I.I.h z h h h h h h h h h h h h h h h h h h h h s h h I.I.I.I.I.I.I.I.I.I.I.I.I.I.I.I.I.I.I.I.",
"I.I.I.I.I.I.I.I.I.I.I.I.I.I.I.I.I.I.I.h z h h h h h h h h h h h h h h h h h h h c z I.I.I.I.I.I.I.I.I.I.I.I.I.I.I.I.I.I.I.I.I.I.",
"I.I.I.I.I.I.I.I.I.I.I.I.I.I.I.I.I.I.I.h z h h h h h h h h h h h h h h h h h h h c I.I.I.I.I.I.I.I.I.I.I.I.I.I.I.I.I.I.I.I.I.I.I.",
"I.I.I.I.I.I.I.I.I.I.I.I.I.I.I.I.I.I.I.h c h h h h h h h h h h h h h h h h h h h c I.I.I.I.I.I.I.I.I.I.I.I.I.I.I.I.I.I.I.I.I.I.I.",
"I.I.I.I.I.I.I.I.I.I.I.I.I.I.I.I.I.I.I.h c h h h h h h h h h h h h h h h h h h h z I.I.I.I.I.I.I.I.I.I.I.I.I.I.I.I.I.I.I.I.I.I.I.",
"I.I.I.I.I.I.I.I.I.I.I.I.I.I.I.I.I.I.I.I.c h h h h h h h h h h h h h h h h h h z h I.I.I.I.I.I.I.I.I.I.I.I.I.I.I.I.I.I.I.I.I.I.I.",
"I.I.I.I.I.I.I.I.I.I.I.I.I.I.I.I.I.I.I.I.h z h h h h h h h h h h h h h h h h h c h I.I.I.I.I.I.I.I.I.I.I.I.I.I.I.I.I.I.I.I.I.I.I.",
"I.I.I.I.I.I.I.I.I.I.I.I.I.I.I.I.I.I.I.I.h z z h h h h h h h h h h h h h h h h z h I.I.I.I.I.I.I.I.I.I.I.I.I.I.I.I.I.I.I.I.I.I.I.",
"I.I.I.I.I.I.I.I.I.I.I.I.I.I.I.I.I.I.I.I.l z h h h h h h h h h k h h h h h h h z ! I.I.I.I.I.I.I.I.I.I.I.I.I.I.I.I.I.I.I.I.I.I.I.",
"I.I.I.I.I.I.I.I.I.I.I.I.I.I.I.q.q.q.t.e.Q s h h h h h h 3 2 6 1 f h h h h h h f ;.r.q.t.q.t.q.I.I.I.I.I.I.I.I.I.I.I.I.I.I.I.I.I.",
"I.I.I.I.I.I.I.I.I.I.t.q.t.q.t.t.q.e.q.t.O.d k h h h h h d W } w h h h h h h h f [ e.q.q.t.q.t.q.q.t.q.t.I.I.I.I.I.I.I.I.I.I.I.I.",
"I.I.I.I.I.I.I.t.q.e.w.w.w.w.w.w.w.w.w.r.Q f h h h h h k a O.0.z h k h h h h h d ' r.q.7.2.4.4.w.t.q.t.9.w.9.q.I.I.I.I.I.I.I.I.I.",
"I.I.I.I.I.e.q.q.q.q.w.t.t.t.w.w.w.w.r.{ h f h h h h h h a O.0.z f h h h h h h f m q.w.9.7.8.7.q.q.t.q.t.w.t.t.9.q.I.I.I.I.I.I.I.",
"I.I.I.I.q.q.t.q.t.w.8.7.7.7.w.w.q.w.0.b f h h h h h h z a ! q.h h h h h h h h j f O.t.w.w.w.t.w.t.q.t.q.t.q.t.q.t.w.I.I.I.I.I.I.",
"I.I.I.q.e.t.q.t.q.t.9.2.4.3.9.t.q.r.;.p 8 h h h h h h f f ' r.O.a f h h h h h h 3 f 0.t.w.w.w.w.t.w.t.t.q.t.q.t.t.q.I.I.I.I.I.I.",
"I.I.I.I.t.t.q.q.w.w.w.w.q.w.w.w.w.r.{ 3 4 h 3 z h f z Q { t.w.w._ m f f h f 3 h , i q.w.w.w.w.9.8.8.8.8.t.9.t.q.9.t.I.I.I.I.I.I.",
"I.I.I.I.I.q.t.t.w.w.w.t.w.w.w.w.w.q.t.0.m 6 4 f f W 0.r.t.w.w.w.e.t.[ m f f 3 f O.9.w.w.q.t.t.w.4.3.3.5.w.9.q.t.q.I.I.I.I.I.I.I.",
"I.I.I.I.I.I.I.q.t.w.w.w.w.w.w.w.w.w.q.e.q.0.' O.{ t.e.q.9.w.w.9.9.8.e.8.` O.{ 0.t.w.w.w.q.t.w.t.q.9.q.q.q.t.t.I.I.I.I.I.I.I.I.I.",
"I.I.I.I.I.I.I.I.I.I.w.w.w.t.w.w.t.w.t.q.q.9.e.r.e.t.w.w.t.9.w.7.} 2.2.9.t.r.e.t.w.w.w.w.q.t.q.q.q.t.w.t.I.I.I.I.I.I.I.I.I.I.I.I.",
"I.I.I.I.I.I.I.I.I.I.I.I.I.I.I.w.q.t.t.q.q.q.q.q.t.q.t.q.t.9.q.t.7.e.9.q.q.q.q.q.t.t.q.t.q.t.I.I.I.I.I.I.I.I.I.I.I.I.I.I.I.I.I.I.",
"I.I.I.I.I.I.I.I.I.I.I.I.I.I.I.I.I.I.I.I.I.I.I.I.I.I.q.t.q.t.t.t.9.e.t.I.I.I.I.I.I.I.I.I.I.I.I.I.I.I.I.I.I.I.I.I.I.I.I.I.I.I.I.I.",
"I.I.I.I.I.I.I.I.I.I.I.I.I.I.I.I.I.I.I.I.I.I.I.I.I.I.I.I.I.I.I.I.I.I.I.I.I.I.I.I.I.I.I.I.I.I.I.I.I.I.I.I.I.I.I.I.I.I.I.I.I.I.I.I.",
"I.I.I.I.I.I.I.I.I.I.I.I.I.I.I.I.I.I.I.I.I.I.I.I.I.I.I.I.I.I.I.I.I.I.I.I.I.I.I.I.I.I.I.I.I.I.I.I.I.I.I.I.I.I.I.I.I.I.I.I.I.I.I.I.",
"I.I.I.I.I.I.I.I.I.I.I.I.I.I.I.I.I.I.I.I.I.I.I.I.I.I.I.I.I.I.I.I.I.I.I.I.I.I.I.I.I.I.I.I.I.I.I.I.I.I.I.I.I.I.I.I.I.I.I.I.I.I.I.I.",
"I.I.I.I.I.I.I.I.I.I.I.I.I.I.I.I.I.I.I.I.I.I.I.I.I.I.I.I.I.I.I.I.I.I.I.I.I.I.I.I.I.I.I.I.I.I.I.I.I.I.I.I.I.I.I.I.I.I.I.I.I.I.I.I.",
"I.I.I.I.I.I.I.I.I.I.I.I.I.I.I.I.I.I.I.I.I.I.I.I.I.I.I.I.I.I.I.I.I.I.I.I.I.I.I.I.I.I.I.I.I.I.I.I.I.I.I.I.I.I.I.I.I.I.I.I.I.I.I.I.",
"I.I.I.I.I.I.I.I.I.I.I.I.I.I.I.I.I.I.I.I.I.I.I.I.I.I.I.I.I.I.I.I.I.I.I.I.I.I.I.I.I.I.I.I.I.I.I.I.I.I.I.I.I.I.I.I.I.I.I.I.I.I.I.I."
};
