/* XPM */
static char *result[] = {
/* columns rows colors chars-per-pixel */
"64 64 30 1 ",
"  c gray88",
". c #E1E1E1",
"X c #E2E2E2",
"o c gray89",
"O c #E4E4E4",
"+ c gray90",
"@ c #E6E6E6",
"# c #E7E7E7",
"$ c gray91",
"% c #E9E9E9",
"& c #EAEAEA",
"* c gray92",
"= c #ECECEC",
"- c gray93",
"; c #EEEEEE",
": c #EFEFEF",
"> c gray94",
", c #F1F1F1",
"< c gray95",
"1 c #F3F3F3",
"2 c #F4F4F4",
"3 c gray96",
"4 c #F6F6F6",
"5 c gray97",
"6 c #F8F8F8",
"7 c #F9F9F9",
"8 c gray98",
"9 c #FBFBFB",
"0 c gray99",
"q c #FDFDFD",
/* pixels */
"1>*&;,13>*$;:2<,=%*,,4,=#;;>31=&*>>11>&*;,21,#*>,32>&&,143:-*:<4",
">>>11-&=-<<<=**>:<<:%;;:,1:=;=:>1>*;-::3<&-;:,3<=;-,21,-%<,,23--",
"@,53<;$O;541=%+*441>$@$442;&%+351,*$#<42<=$O,621=&@-66<;%#-741-%",
".<81::*O;62>:-+$84>>=++641;*%X56,,-#O28,>:*.<8,<;*O=64,>;X&92>:*",
"+<74,-$@=74>:=+&66,;=%#451:-%X443>*%O,73,*=O;84>;*@;73:;&$=652;=",
"o,73,;$o-74,;*O&65<:*#@561;=$O461>=%O<72<-%o:74>:&+:74>-&+*751:*",
"X,61>:&o;63,;*+%53,,*++54<;*##27>,-$+16<,:#o,51>>%+;54<;=X*92>:=",
"&,42,=%%=33<;&@=<31:&%$,31>-#$:24>&%$,44>&%*>27>-%$,42<-$*:542-&",
"2:&;,;:1;=-,;-,<&=>-*>,-&;:&,,;&,:=,<-=:,;>,>--1::1,*;3-,2<-:3,;",
"<>*$*132>=$#>43:-##:33,=$#-14,-&O=352:&@&251:*%%252>-%%283>&$%<8",
",>=@+661>*#.182>;#.:94,=$o=85,-*O&82,;*@@671:&$o581>=#.581>;&o<8",
"1:=#O74<;*&X45:1=&O:7<>-*O=9<,:&@#831;*@#63,>&%@64<>&&O371>-&X36",
"1:=#O74<:*&X45:1=&O:7<>;*O=8<,:&@#842:*@$73,>&&@53<,&*O37<>-&X36",
",>=@+651>=#.182>:#X:94,=%o*84>-*o&83<;=@@671:&$O571>-#X57<>:&o<8",
"<>*%*121>=$#:32:;#@;23,=$#=<4>-*O*342:*#&251:*&%142>-%%262>*$%<7",
"1:&;,-;,;=-,-=>,&*:=&>,-&;;%>>;&,;&:>-->>-:,>--1;;1,*:3-:<<;:3,;",
"%:42<*&$*3<1:%+&,21:%$@>32,&#&-21>=$$>33<=#&>34,=&$>52>;$&:351;&",
"o>81>;*X*73>;=@+84>>=@+35<:=$+>04--&o:9<>;$O-76::&+-64,:-X*83>>=",
"O:73<-&o=73,:&O$55<:*@+441>*#o281:-#O,7<,-$O;83,;&+;85>;&+*842;*",
"+:73,=&@=61,:%O&45,;*#+341>*$o43,>;#@<6<>-*+:7<<;*+;84:;&$&744-*",
"X,91:-*X*73:;-@+04::=@+57,;-&X373-;%X>01;;*X-02>:*O=64,:;o$02<:=",
"@:63<-&O&442;%@#331,%@+,41>*#o<53>=#O;64,-$+:72<-%@;661-%#=742-&",
":-><1-=-=>:1;%&:&:<:%=*=;>>&%*:;:,-&;;;<<-*;,>><--;<<<<=&<>:22--",
"2:*$=:12:=+&=13,=##=;3<;##&>32=&&&>31;&$-,23;%==,23<$$,,73>**-<4",
"1;=$o651,&*X>52>-$X:71,;&o&83<;&O%91<:=@+75<,&#O48<:-& 571:==X16",
",:-$o76,,&#.38<>;%X;74<**o&93>;-O$842;&+#63,,&$#652,%&+<73>*&o28",
"<-*$+55<;-%.37,,-%O:72,-&+-72>-*@%73<-*#$64,,*$@631,%%@161>-*O17",
"1;&@@461-;&X,62>-#O,71::&+=64,-&O&62,;=#@56<:*#o46<>-#X57<:;*O,8",
"<>*+@46<,&#+:54:-#O;64>-%X&46<;=O%462:*+$351:&##383>-#O282:*$@<8",
"1;*==:,<,%%-;><>&*&*><>-&%;:,,>%=&>3<-=*;,,,>*&:>12>*=::21,=&;11",
";->2<*&-->,<-&*--,,-%%*:>,<%$*>=2;*=&-<<>;*=><,1===:,12;*-,112>*",
"O<73>-*o*55<-&#+631>&O@,7,>=%o:81,*@+,72:-%@:74,-&+-84::%@=452=&",
"o<8<<-&O=71,:=@@82<:*@#341>&$X38<1=#+262,-%o-03>;&+=822=*$%65<;-",
"O>61<=%@%94>;&+&352;*+@56,:-%o341,-$X<7<,:&O:7<<-*O*81<>*O%961:*",
"X<81,;&X*93::*+$75>;>+o66>:-$O461:;&o<8,>:%o>7,<-=O=92>:=o%94<,&",
"O,73,;%o-54<>*+@84:;;++351>&@O283:=%+,72:-$O:84,-&+;85,=*@*64<>%",
"--,4<*%*;>31-$&=:21-#$-:12>%&$;13>*#&:24,==*;44,=&&>132;&-:25<:&",
"<;=:-;:<:&;--;,,&=;:-:<=*---<,=&=;:;1;=->;<1;=:>>>,<*-><,2,;,;><",
",,*##36,>&$+,52,-#O>62,=#O*342;$O*344;%+*241:%#&352,&#$273>*&#18",
"<>%@#57,--$X28<>-%o;83>-&X;92,:&+*64,=-@@86:,;+O48<>;#o47<,;%O18",
"<--#+551;-%o38<>*&+:83:;=X;9,<;*@%74<;%#@84<:=+#361>-$X49<>-#+37",
"1-*#@54<:=%O161,;&+:74,-*X-91<;=o*92,>*+@74,:;$+55<:=%+37>>:&+<7",
"<:=+@66,,*++282>:#O,73,;%O-74<-*o=72,>&@&541;=#O84<,=@@382:=$@<8",
"2:=$&231>*#%<52>*$%>32,-%#-32,=*%=231;%&;133:%$*232,*$*155,*%*24",
"1=;,,--,=>>>;-;,*><-=,,=;;::;;:;>-;>:;-,>;:>>:,1*,1;-<2::<><,,,;",
"&>42<=&#-431-%$=322:%$&<31>&$&122>*%#,43>=&#>55,-&&;431-*%=661;=",
"o191>;*.;82<;*@$02<,*o+661>&#@262,*$o192,-%o:74;,#O:01>;*@%85<;-",
"+>621*&+=92,:*#%642;*#$55,:-$O27<:-*o<8,,-*+,62,=&@=721;*@*84<:*",
"+<512*&O;53<==#%55<==#@533>&&#162:=*O181>=&+,53<==#=93,;&+=732:=",
".291,;=X;82>:*o%03,:-O+96<>=+O381>=$o291<-%o>74:>%o*93,;*O&751-=",
"$<531*%@-64<;%+;532;%#&34<>=##242,=%#162,=%#>65,-%#;74,-&$-762-&",
"<:>1<==>;:<1-=:>-,1;*>,-;1:*>>::1>;>::><>-;>,>,2=:,,<<<;-,,<<<<;",
",:=%=341,&%=,33>=%*131,-%-;<41*&=;<31-&*:134:%%;144:%*:245,*%=35",
",>*+$77,:-++46<,;++172>;&o:03>=*o-541;&+*651;*#@741,&#$383:=$+28",
"1:*#$54,-:#O45,<-$+>62,=*.:q<>-*o-741;=O#74,;-#+63<<-#O26<::&O16",
",:=##661:=$@374:;%@,72>;%@;612-&@=54<--@$93<>=@#551>*$+471:-$O56",
"<:*##65,;-@+55<,:@o<72,-&X;91>:*o=731;&#$94>>;+#661:-##36>>:%o,8",
"<:&@$66<>&+#363;-#@171,;$#>64<-%+-742:&+=662-&#%452>-@%574>%%$29",
"2-=:;<,2>=;;><2>*;;:,1<-*:,,2<-=,-<21;=::,33--:>>32:-;><14,=>>11",
"::15<=&:>151=&;>,41-*->:12>*--,25----:15,==;>431=:;:142=&;,352>&",
"@183:=%O,64,;%@*93,>*+%562>&$$36,>;##371,=$@,72>:#O<83,;*@-85,>%",
"O17<>-&.>82:>*o*92,>=O$85>>=#+55<,:@O47,>;%X<81,:$o,81>:=o&03>>=",
"+<521=&+:83,>*O-741;*#%74,>=$+554>-%O163>-*o<82<--+-63<;*+&94,:*",
"X292<&&O:73<;*O*93<:=@#852>%%+56<>;%O3711**+<72>-=o;05,;&%*541;*"
};
