/* XPM */
static char *result[] = {
/* columns rows colors chars-per-pixel */
"64 64 216 2 ",
"   c #010001",
".  c #0A0305",
"X  c #0E0904",
"o  c #04000A",
"O  c #0C050B",
"+  c #0F080B",
"@  c #100B07",
"#  c #110B0D",
"$  c #19140A",
"%  c #1A150D",
"&  c #040012",
"*  c #0C0413",
"=  c #0F0811",
"-  c #0C0319",
";  c #140D13",
":  c #11071B",
">  c #150C19",
",  c #140C1A",
"<  c #171014",
"1  c #1A1315",
"2  c #1F1915",
"3  c #171018",
"4  c #1C151B",
"5  c #1F181C",
"6  c #221E14",
"7  c #211B1D",
"8  c #2A241E",
"9  c #2D291A",
"0  c #0E0321",
"q  c #120723",
"w  c #160C22",
"e  c #180F23",
"r  c #180D2B",
"t  c #1D1523",
"y  c #1F1821",
"u  c #1D142B",
"i  c #1F1435",
"p  c #231C23",
"a  c #21172B",
"s  c #251D2B",
"d  c #251B35",
"f  c #261C34",
"g  c #272023",
"h  c #2A2326",
"j  c #2E2923",
"k  c #2C252A",
"l  c #2F282B",
"z  c #312C23",
"x  c #322B2D",
"c  c #36312E",
"v  c #3A362B",
"b  c #3D392C",
"n  c #2E2533",
"m  c #2F2831",
"M  c #2D233B",
"N  c #342D32",
"B  c #302738",
"V  c #352D3A",
"C  c #373033",
"Z  c #3A3335",
"A  c #3E3935",
"S  c #373038",
"D  c #3B343A",
"F  c #3F383C",
"G  c #413D2E",
"H  c #413C36",
"J  c #423B3E",
"K  c #464235",
"L  c #46413C",
"P  c #4A453D",
"I  c #5A583B",
"U  c #2B1E45",
"Y  c #372D42",
"T  c #3C3342",
"R  c #3F3649",
"E  c #403746",
"W  c #443D42",
"Q  c #443C4B",
"!  c #443A52",
"~  c #474044",
"^  c #4A4345",
"/  c #4E4946",
"(  c #4C454A",
")  c #4F484B",
"_  c #514D45",
"`  c #524B4D",
"'  c #585447",
"]  c #575249",
"[  c #56514C",
"{  c #4D4452",
"}  c #4F4850",
"|  c #4F465A",
" . c #504757",
".. c #544D52",
"X. c #544C5B",
"o. c #575053",
"O. c #5A5355",
"+. c #5D5854",
"@. c #575058",
"#. c #5C555B",
"$. c #5F585B",
"%. c #625F4B",
"&. c #605C55",
"*. c #615B5D",
"=. c #686456",
"-. c #66605C",
";. c #6A655C",
":. c #5D5563",
">. c #5F5763",
",. c #645D62",
"<. c #645C6B",
"1. c #665C71",
"2. c #676063",
"3. c #6A6366",
"4. c #6E6964",
"5. c #676068",
"6. c #6C656B",
"7. c #6F686C",
"8. c #706B64",
"9. c #716B6D",
"0. c #76706D",
"q. c #79746C",
"w. c #7E7B6A",
"e. c #6C6472",
"r. c #6D6379",
"t. c #746D72",
"y. c #706778",
"u. c #746B79",
"i. c #777074",
"p. c #7A7375",
"a. c #7E7874",
"s. c #777079",
"d. c #7C757A",
"f. c #7F787C",
"g. c #817E6A",
"h. c #817C75",
"j. c #827B7D",
"k. c #808058",
"l. c #898677",
"z. c #87817E",
"x. c #8A857B",
"c. c #94917D",
"v. c #766D80",
"b. c #7D7482",
"n. c #7F7880",
"m. c #837C82",
"M. c #807789",
"N. c #857D89",
"B. c #878084",
"V. c #898285",
"C. c #8F8986",
"Z. c #878089",
"A. c #8C858A",
"S. c #8F888C",
"D. c #928C86",
"F. c #928B8D",
"G. c #979482",
"H. c #97918E",
"J. c #98938E",
"K. c #8C8493",
"L. c #8F8890",
"P. c #948D92",
"I. c #91879B",
"U. c #958D9C",
"Y. c #979094",
"T. c #999394",
"R. c #9F9A94",
"E. c #9C959B",
"W. c #9F989B",
"Q. c #A29E8C",
"!. c #A19C92",
"~. c #A19B9D",
"^. c #AAA69A",
"/. c #9C93A4",
"(. c #9B91AA",
"). c #A49DA2",
"_. c #A49CA9",
"`. c #A79EB2",
"'. c #A7A0A6",
"]. c #A9A3A4",
"[. c #A7A0A9",
"{. c #ADA6AA",
"}. c #AFA8AB",
"|. c #B0AAA7",
" X c #B1ABAD",
".X c #AFA7B0",
"XX c #B2ABB2",
"oX c #B7B0B4",
"OX c #BAB4B6",
"+X c #BCB5B9",
"@X c #BFB8BC",
"#X c #C0BFA2",
"$X c #C2BCB9",
"%X c #BEB6C3",
"&X c #C3BCC2",
"*X c #C5BDC8",
"=X c #CBC4C8",
"-X c #CBC4CA",
";X c #D1CACE",
":X c #CFC7D2",
">X c #D4CDD2",
",X c #D6D0D4",
"<X c #D9D2D6",
"1X c #DCD5DA",
"2X c #DFD8DD",
"3X c #E1DADE",
"4X c #E4DDE2",
"5X c #E7E0E5",
"6X c #EDE5EB",
"7X c #EDE6EC",
"8X c #F2ECEF",
"9X c #F5EEF3",
"0X c #F7F0F5",
"qX c #F9F2F6",
"wX c #FCF5FA",
"eX c #FFFCFE",
/* pixels */
"r t 4 ].w.L . p X.u.M.M.3.k   ) T.>X( h       L H.j.#.B u   q.k.k.I z 5 a y.}.3.% 8 C 2 + :._.b.n     K c.Q.x.Z   , { B./.(     ",
"  u #.|._ v X   , u.&Xs.4 ; ; +   A.5.O.g 5 g 3.H.6.V t u , q.^.#X%.    * X.Z.p.+.1   + ( d.U.R f + 2 ' w.l.a.) > > n <.S.7.N y ",
"r.K.E.}.% @ ; #./.@.>  .P.5.k p 1 ~.a.6.W ` 4.C.F.) O - M :.i.^ 8 -.E.R   t @.i.C.0.o.2.s.m.Z.  t N -.;.' +.-.,. .s   F f.B.t.t.",
"`.#.  9.$ @ W d. .D p N } #.*.    d.#...Y.9.` A j.J o V :.X.V s 4 E :.<.u o ..t.C a.|.i.N O.A.  = *.0.g A c W F m.S   D m.D Q 7.",
": ,   ~.6   9.P.o 4 k 3 = } S.  O t.^   g 7 C   p.F *  .N.Q   & u a u K.! o #.s.  1 / 1   F F.    B.6.  g # p ; ~.(   J A.  .  .",
"  y J T.+.# 6.Y.  , p ; O ^ A.O ~ j.t.1 7 ; p k P.,.S N M.R   & i r : M.N N d.m.p 3 ; # 7 2.E.z . A...; 4 ; h   F./ # O.W.l @ x ",
"  J V.B.V.8 *.A.; 3 4 ; ; Q j.h s.B.H.*.7 1 s 6.U.u...X a.J * - u u > 3.# +.A.m.<.y   ; ` j.F.O.X d.W V , , k   j.^ 7 *.W.6.8 # ",
"4.+./ A ` ^ B.j.p 3 ; . # ..T.@.( Z J O.2.2.:.{ T <.Y.;.x._ # * e a N R.^.a.D ,.U.u.} i.W.2.x ;.D.~.O.B & o 3 p z.G.C.+.c 9.~.|.",
"$X9.@   + ,.).3.p 7 p O . *.{.9.#     ~ E.[.K.T     # =.Q.=.1 > f Y ^ ;.l.P .   , r.%Xm.h     % _ $.<.Y & o ; O.D.4.v     8 3.a.",
"p.4...3   ~ s.A.E.( . ^ Y.~.F.k < 1 J #.2.e.e.X.B < X ' c.' ` p * ,.|.h.    @ x :.1.5.<.O.x @ 6 j T..XK.R T T p.z.' 8 1 7 ^ p._ ",
"4 #.U.{ * N X.~ W j.}.B.O.2.d.  5 ..Y.5.s a S e.m.W   v l.8 i.K./.e.x l.9 j h 6._.X.  D i.9.] j   9.T e.b.b.7.f.a.A X c 4.3.4.O ",
"w Y | M.t , #.3.; J 7.^ g [ B.  . t.m.s y = s S K.F   b x.  W ( :.R 3 H.% X ^ }   o > k ~ *.9..   p.{ d X.! T l 0.+.  x 0.*.Z   ",
"i w o %XR - e.m.    h .   ~ Y.    f.$.  a * y   N.A   L J.  . o t ;   ~.8   *.P., p n ; . ^ V.  . f.$.  y o ;   9.D.  A t.^     ",
"u t o r.  3 m.P.D 8 # 1 x 4.T.L A -.(   , , n   h.O.A 3.J.^ J 5 = k ^ T.` Z 3.P.  , N ;   W j.A J C.B.g s 4 N N V.*.  x j.7 # X ",
"t p u L.>.f.m.Z.B.( 5 W i.C.J.x.*.( Q s - w T   p.0.0.z.F.F.a.^ 7 ) B.p.0.f.4.Y.+ 4 k 1 + W p.m.t.C.).i.T ^ $.j.P.C.B.B.m.  h ; ",
"+     .X'.@.  O $.7.p.p.3.8   ^ H.}.,.Q q - p D D.h.[ <   c a.j.0.-.` c C 7.s.>.    ; p N ,.P.@...3   W p.C.j.D   ; O.d.F.Z k 4 ",
"  ^ H.+X8 7 5 O ; s.:XF.Z 7 2     R.N.1.d -   2.^.8.2 . # h [ T.$X4.X     F t.f.i.D . 4 Q d.].o 3 # h *.R.E.B.` 3 O ; $.P.9.p 4 ",
"R.z.O.S.7 7 1 m.A.) O ..~.9.x $   A.e.R 1.v.P.i.D.^ . < Z t.C.Q   ..~. .; * t.m.).j.#.9.S.P.Y.  4 g ..$.` ` ^ O.` p . J B.6.T.Y.",
"z.+.2 4.5 Z Z E.W k O 4 N +.8.H   9.) t I.y.,.; q.c   W m.{     * T e.{ E   t.N ; 6.&X9.# J m.  7 ` F...    O $.T...O J m.+ ( A ",
"    # B.J 5 W E.k 7 O # 7 ` a.1 @ j.} 3 Y n V . H.^ . J N.s u - 0 M | y.Q   e.7.+ # 1 ; 1 ` j.$   ,.i.p #   ; N Y.^   J A.h 7 + ",
"    . C.*.+ ..m.o 7 k < . J j.  5 V.( p     o   W.#.1 Q n.  M d U i q N...+  .A.= p k 7 4 ( 9.x   9.@.  k 3 k   z.J   ~ j.^     ",
"h +.A.W.O.~ d.3.  # g # . ( C.H A T.).t.p > N  .+Xm.^ *.n., - 0 d r - 1.4 J E.XXQ O   ; +.B.~.h.A i.,.  f , p   j.;.` j.].p.Z h ",
"h.9.+.^ ^ j.W...# O 4 1 p *.F.B.o.W ^ #.y.d.t.W ; F 0.B.z.F   o q - * XXR.-.4 Q M.u.,.V.).O.< _ H.j.p.  a * p   z.J.!.` @ ^ C.W.",
"J.[ X   l J F.6.O.Z 4 . O ` T.` J     C d.A.M.{ = 5 J ;.w.4.N y e V ..].' L @   p N.:Xu.X   % A _ Y.Z.Y d u m ^ J.' . X 7 x F L ",
"D.h.O.7 #   p.B.P.) ; ..~.~.A.  1 8 ) #.,.s.d.Q :     H w.l.4.T e X.j.^.$ X   k <.1.e.A.U.$.6 .   ~.A.r.d f V p.R.&.6 % p O.B.F.",
"  ^ E.B.7   3.j.D 9.E.i.} 4.A.  O d.].i.C k V b._.(   v g.b ` s.U.t.A !.$   h F.K.Q   4 @.,.*.    j.:.>.(.I.m.$.h.H X j +.O._ ( ",
"a p 4 M.S o ,.j.  g *.x   J V.  ; p.J l =   o Q r.D X P D.X x T | s   ^.v . *.m.  > B p 1 *.R.  . 3.E   X.M p   9.c # ( B...# X ",
"- a f d.p m s.j.1 g Z 1 . o.~.N . B.J l X o y k N.( # j ] X 7 p B V x 3.$   $.P.  = p 3 1 o.Y.  c 4.2.e s , 4 l J._ . H p.^ X   ",
"q d M r.* @.N.9./ x 1 # 1 -.~.3.; f.J l ; 4 F o N.J . 3.$X9..   > S ,.j.^.h ` d.o > p 3 y ` B.@ / *.d.Q o   y i.|.O.  x 2.A O   ",
": w e K. .:.} 9.F.^   ^ Y.9.W O.$.j.` x #   ; 3 m.L.F.3.( a.P.Q   Q Y.t.$.( m.s.; ; 3 # ; / C.i.Y.V.A.s.X.....@./ 3.j.B.p.Z     ",
"s ;   [.E.3.4 O 1 ,.].B._ ;   ^ ~.f.o.Z 7     W m.i.` 1   p *.L._.#.; o 7 t.{.7.g p h ; ; $.~.7.1     ) XX{.B.Z   + D t.F.(     ",
"  ( P.].O # 1 k O.S.XX~.t.Z .     A.+X4.  O D p.V.<.N 4 ; W 9.).oX,.o   + X.n.t.2.p   7 #.d.A.x 5 ; N ,.m.B.t.` g < 4 O.B.9.F x ",
"D.a._ F.x h 7 $.F.~   D j.,.x g 1 V.) d.P.B.i.A.V.Q   p  .6.6.l   #..X#.o p { 5.m.p.7.p.A.m.i.  4 T f.2.J J _ 3.5.h   x d.B.d.i.",
"] J 6 D.$   ~ t.( k + 7 J #.4.O   f...x *./ ^ D B.D   F n.V W 4 + S ,.e.p + @.3.g 3.'.9.N ..n.  + 2.p.g g 4 k D A.D   N m.N C ,.",
"1 .   F.1   3.B.  + h O   ` ~.    t._   l + <   j.D    .).  ; * y 3 + p.J O 7.d.    p     F L.    m.*.  6   ;   E.(   W A.    D ",
"@ g J F.( x $.B.  3 x 3   ^ Y.# W z.f.1 3 + 7 k F.3.( D U.p = ; s p ; m.Z Z M.A.k > O ; k 6.W.D 4 V.J   7 + 1   N.$.C ,.Y.x k 4 ",
"7 ..F.B.i.t.` m.. 7 C p 4 ^ m.h a.B.T.$.4 p ~ 7.A.B.m.h n.( , , p D F V.7 $.B.L.N.Q O N t.E._.t.l j.l l 5 1 p   t.$.@.9.C.B.i.# ",
"j.9.$.W ( 5.9.j.x 5 # # p $.Y.o.) D ^ O.*.9.i.+.N J X.) P.>.* o *   + z.^.a.x D #.1.y.7.$.4   ` E. X$.Z + . 7 x B.E.T.3.D #.d.( ",
"&Xd.7 . + ) A.9.^ 7     7 4.].9.<     _ T.].F.J     4 t._.,.&     W V.j.8.g     e d.&Xm.p # + 4 F 3.T....   7 i.'.2.;     Z 9.m.",
"3.3.<.g + F 7.j.W.t.( 4.F.Y.A.h 1 p ( #.#.$.$.` N 1 O { L.r.E.1.Q n.}.w.      ) /.b.:.m.E.<.p p 7 9.t.7.^ ^ O.O.P...3 4 k / @.2.",
"  .. X<.4 Z ..Z h 3.~.9.F o.p.  7 O.R.*.# X 5 ,.A.~   D n., <.b.(.@.O q.G P A ) :.s   y  .2.2.Z   t.^ 9.j.j.m.h p.F ; J 9.,.J Z ",
"+ O   #.p 5 *.2.O x O.C 1 ` B.    9.B.k 4 O 7 N P.W   C d.p s V { m # h.b % ( 6.V e   ; N *.j.#   m./ p ( J W . B.F   J B.Z h 4 ",
"p 5 O XXZ O 9.P.          ^ C.    a.$.  N 7 l   B.F   D e.N       o 5 x.H   O.M.  - a ; o ( S.  # B.*.  ;   .   A.W   W F.  5 . ",
"h 3   i.O 3 t.T.W 7   < J V.&X*.J p.$.  k 1 h   d.@.W f.XXu.p o o h ` h.' Z 4.L.  ; N >   ( F.W J m.p.7 k ; p ..;XA.W ,.P.  1   ",
"p ; . ~.P.m.$.d.E.` # ..W.3.N *.A.a.3.  p # 7   i.m.m.@.N } e.{ s X.m.9.[ p.d.).= p B p p O.A.m.*.9.B.i...O.$.$...3.j.A.F.  4   ",
"4 C } [...` h O 7 p.$Xm.N 1 # ~ 2.p.Y.N 1 # h F F.i...N y ^ n..X&X7.;   g -.t.6.  * 4      .~.*.^     W m.P.j.N     J t.Y.^ Z p ",
"+  .A. X4     1 ..j.Y.A.4.l   . l p.XX9.+ # x j.).2.1   = ( j.P.K.t. .+   p 3.P._.~   Z F.).).  7 . 5 O.P.T.m.*.Z     W E.j.W Z ",
"A.9.( B.h   p B.A.^   ( T.i.~   4 4.p.,.P.T.~.t.F.Q O s ( >.@.s   ..).j.. + t.#.<.B.).f.@.9.F.  # 6.B.t.) ^ ^ #.$.7   Z B.,.j.XX",
"W h   7.J O 3.F.O 7 l < . o.~.. < i.^   *.( ) O f.D O ( B.>.p 4 p m D A.V O j.W p #.E.*.p ) j.  + f.^ k .   O ..V.) # W j.  O o.",
"p 7 % N.}   ,.Y.  # p % + ..P.  + S.O.< h 1 5 h V.( O Q Z.h 5 + + p m N.N   M.s.O   . . ; ..V.4   m.) x     < k B.( ; ` A.p + l ",
"  ; k F.W . *.m.  3 l 7 1 ( j.  . A.,.Z       ~ m.` 1 W p.  p ; > 4 7 s.S o 7.P.  1 x ;   ^ j.^   i.( l . # l   d.( 7 ..m.O.1 . ",
"W ,.m.OXP.3.d.3.X 1 l 3 X ( A.4.a.}.B.3.Z N J i.P.7.~ ,.d.; O O 1 ; = N.,.#.P.&Xm.Z   D A.E.P.j...t...N O   p   j.9.*.d.P.p.( D ",
"P.7.D 4 5 5.E.*.7 h Z 4 O $.).j.C .   J S.~.Y.D   p 7.m.m.W   + k p = _.N.}   7 ..d.P.m.,.p   ` }.A.$.D 4 + 4   B.~.~.W   x j.P.",
"A...#     ..j.t.3.5   + / f.T.J h # x $.p.m.j.@.5 5 N ,.m.d.T O   p #.oX} F o   h d.@Xs.h ; ; # . 5.i.D   + ^ @.T.` +   ; ( m.C.",
",.j.A.N   1 O.d.P.3.J +.f.V.S.  # k ,.,.` o.o.*.O.5   N M.A.i.,...m.E.XX; * = #.).@.; ( S.,.h 4 + E.i.p.,.<.4.F.P.$.p g D ..5.9.",
"  h ,.7.7 O ..t.Z t.).t.F ,.C.  X *.p.N J Z W C m.D   Z m.D ..n._.$.  <.p ; W m.O.F p Z ..3.6..   f.O.O.~.i...~ V.^ + N 2.` N x ",
"N N k P.} O ,.p.  4 ^ 7   ^ F.  . C.p.  N 7 N = E...; ~ Z.  h p N k p B.W # 9.~.; p C p 4 ,._.. O t.(   p 5 Z   d.W # ( m.^     ",
". ; 1 f.p g 7.i.< # < . . ..Y.g   z.` . ;   # 4 j.^ ; { L.h > o + p D s.<.o ,.,.o + 3 .   ( Y.  N 4.,.X #   # 4 m.( 1 ^ t.Z     ",
"  4 k 3.  ) C.m.,.7     l 0.~.2.. i.F z       W 7.W 4 ,.).6.t     k t.m.P.4 ( s y +     . W j.p 7.p.F...O     o.P.,.k ( 3.D .   ",
"<XOXT.2X,X2X=XOXOX@X=X2X6X3X-X3X<X3XT.+X,X<X;X$X{.*X4X1X-X2X4X<X-X%X%XXX*XXX0X3X>X>X:X>X>X*X$XA.oXoX-X<X<X,X;X;X&X3X8X;X X&X2X3X",
"9XeXeXeXqXwXeXeXeXeXqX9X9XeXeXqX6X8XeXwX8X7X7X0XwX9X7X9XwXwXqX8X6XwXeXeX0X0X7X6X4X7X7X7X7XqXwXeX9XeXeXeX0X8X0XwXeXwXqXeXeXeXeXwX",
"eXeXeXeXeXeXeXeXeXeXeXeXeXeXeXeX8X8XeXwXwXwXwX0X9X9X9XwXwXwXwXwX0XeXeXeX0XwX0X9X7X9X0XqXqXqX9XwXwXeXeXeXeXeXeXeXeXeXeXeXeXeXeXeX",
"eXwXwXwXwXwXqXeXeXqX9XqXeXeXwX6X1X3X4X5X4X5X5X4X1X1X2X4X7X7X4X2X2X7XwX9X7X7X4X4X1X1X2X4X4X3X2X4X7X0XeXwXwXwXwXwXqXqXqXwXwXwXeXeX",
"eXeX0XwXeXwXqXwXeXwX9XwXeXeXwX6X1X3X3X3X3X5X5X2X>X1X2X4X9X7X4X4X4X7XwX9X7X7X7X4X1X1X2X4X4X3X<X4X7XqXwXwXwXeXeXwXwXqXqXwXwXwXeXeX"
};
